<?xml version="1.0" standalone="no"?>
<!DOCTYPE svg PUBLIC "-//W3C//DTD SVG 1.1//EN" "http://www.w3.org/Graphics/SVG/1.1/DTD/svg11.dtd" >
<svg xmlns="http://www.w3.org/2000/svg">
<metadata></metadata>
<defs>
<font id="eausans_book" horiz-adv-x="259" >
<font-face units-per-em="1000" ascent="800" descent="-200" />
<missing-glyph horiz-adv-x="500" />
<glyph unicode="fi" horiz-adv-x="630" d="M456 652v89h88v-89h-88zM459 0v533h82v-533h-82zM333 670q-22 8 -45 8q-44 0 -62.5 -18.5t-18.5 -52.5v-74h123v-70h-123v-463h-81v463h-104v70h104v89q0 24 9 46.5t26.5 40t44 28.5t61.5 11q17 0 36.5 -2.5t29.5 -4.5v-71z" />
<glyph unicode="fl" horiz-adv-x="630" d="M459 0v741h82v-741h-82zM333 670q-22 8 -45 8q-44 0 -62.5 -18.5t-18.5 -52.5v-74h123v-70h-123v-463h-81v463h-104v70h104v89q0 24 9 46.5t26.5 40t44 28.5t61.5 11q17 0 36.5 -2.5t29.5 -4.5v-71z" />
<glyph unicode=" " />
<glyph unicode="!" horiz-adv-x="281" d="M174 185h-67l-18 556h104zM93 0v96h96v-96h-96z" />
<glyph unicode="&#x22;" horiz-adv-x="422" d="M299 549h-63l27 192h100zM136 549h-63l27 192h100z" />
<glyph unicode="#" horiz-adv-x="570" d="M430 533l-37 -179h107v-63h-119l-29 -143h-63l29 143h-128l-29 -143h-63l29 143h-105v63h117l38 179h-107v63h119l30 145h62l-29 -145h128l30 145h62l-28 -145h104v-63h-118zM240 533l-37 -179h128l36 179h-127z" />
<glyph unicode="$" horiz-adv-x="496" d="M464 220q0 -37 -12 -70t-36 -59t-58.5 -43.5t-79.5 -22.5v-59h-52v58q-68 5 -116.5 30t-76.5 53l51 52q24 -24 61 -41.5t81 -21.5v254l-42 14q-60 20 -98.5 60.5t-38.5 112.5q0 28 10 57.5t31.5 54t55.5 42.5t82 24v63h52v-61q57 -2 104 -25t81 -58l-52 -52 q-26 26 -58.5 43.5t-74.5 20.5v-229l23 -8q32 -11 61.5 -26t52 -37t36 -53t13.5 -73zM226 642q-51 -11 -72.5 -42t-21.5 -63q0 -36 18 -60t60 -38l16 -5v208zM379 220q0 42 -28.5 71t-72.5 42v-235q51 10 76 45t25 77z" />
<glyph unicode="%" horiz-adv-x="870" d="M833 207q0 -48 -13.5 -87.5t-37.5 -67.5t-56.5 -43.5t-69.5 -15.5t-69.5 15.5t-56.5 43.5t-37.5 67.5t-13.5 87.5t13.5 88t37.5 68t56.5 43.5t69.5 15.5t69.5 -15.5t56.5 -43.5t37.5 -68t13.5 -88zM226 -37h-63l481 815h63zM391 533q0 -48 -13.5 -87.5t-37.5 -67.5 t-56.5 -43.5t-69.5 -15.5t-69.5 15.5t-56.5 43.5t-37.5 67.5t-13.5 87.5t13.5 88t37.5 68t56.5 43.5t69.5 15.5t69.5 -15.5t56.5 -43.5t37.5 -68t13.5 -88zM765 207q0 34 -8 62.5t-22.5 49.5t-34.5 32.5t-44 11.5t-44 -11.5t-34.5 -32.5t-22.5 -49.5t-8 -62.5t8 -62.5 t22.5 -49t34.5 -32t44 -11.5t44 11.5t34.5 32t22.5 49t8 62.5zM323 533q0 34 -8 62.5t-22.5 49.5t-34.5 32.5t-44 11.5t-44 -11.5t-34.5 -32.5t-22.5 -49.5t-8 -62.5t8 -62.5t22.5 -49t34.5 -32t44 -11.5t44 11.5t34.5 32t22.5 49t8 62.5z" />
<glyph unicode="&#x26;" horiz-adv-x="681" d="M616 0l-83 83q-53 -52 -110.5 -73t-126.5 -21q-56 0 -100 15t-75.5 41.5t-48 64t-16.5 82.5q0 72 38 123.5t109 92.5q-28 27 -47 50t-30.5 44t-16.5 43t-5 48q0 27 11 55t33 51.5t55.5 38t77.5 14.5q45 0 77.5 -14.5t54.5 -38t32.5 -51.5t10.5 -55q0 -34 -9.5 -61 t-26.5 -49.5t-41.5 -42.5t-54.5 -40l192 -190q7 18 13 37t10.5 42.5t6.5 52t2 65.5h82q0 -44 -3.5 -80t-10.5 -67t-17 -58t-23 -52l150 -150h-110zM378 593q0 16 -6.5 32.5t-19.5 30t-31 21.5t-40 8t-40 -8t-30.5 -21.5t-19 -30t-6.5 -32.5q0 -21 5.5 -38t16.5 -33.5 t28 -34.5t40 -40q56 34 79.5 67.5t23.5 78.5zM253 362q-59 -33 -85.5 -71.5t-26.5 -97.5q0 -29 12 -53.5t33 -42.5t49 -28t60 -10q52 0 98.5 18t84.5 61z" />
<glyph unicode="'" d="M133 549h-64l27 192h100z" />
<glyph unicode="(" horiz-adv-x="333" d="M200 -37q-25 42 -48 87.5t-40 96.5t-27.5 106.5t-10.5 116.5t10.5 117t27.5 106.5t40 96.5t48 88l67 -34q-24 -40 -44.5 -81.5t-36.5 -87t-25 -96.5t-9 -109t9 -109.5t25 -98t36.5 -88t44.5 -78.5z" />
<glyph unicode=")" horiz-adv-x="333" d="M259 370q0 -61 -10.5 -116.5t-27.5 -106.5t-40 -96.5t-48 -87.5l-66 33q24 40 44.5 82t36 87.5t24.5 96t9 108.5t-9 110t-24.5 98t-36 87t-44.5 79l66 34q25 -42 48 -88t40 -96.5t27.5 -106.5t10.5 -117z" />
<glyph unicode="*" horiz-adv-x="410" d="M247 559l78 -108l-41 -30l-79 107l-78 -107l-42 30l79 108l-127 41l16 49l126 -42v134h52v-134l127 42l15 -49z" />
<glyph unicode="+" horiz-adv-x="556" d="M311 330v-200h-67v200h-200v66h200v200h67v-200h200v-66h-200z" />
<glyph unicode="," d="M125 -96h-64l28 192h100z" />
<glyph unicode="-" horiz-adv-x="330" d="M44 244v67h241v-67h-241z" />
<glyph unicode="." d="M81 0v96h97v-96h-97z" />
<glyph unicode="/" horiz-adv-x="296" d="M74 -37h-55l203 815h56z" />
<glyph unicode="0" horiz-adv-x="652" d="M596 370q0 -85 -19 -155t-54 -120.5t-85 -78t-112 -27.5t-112 27.5t-85 78t-54 120.5t-19 155t19 155t54 120.5t85 78.5t112 28t112 -28t85 -78.5t54 -120.5t19 -155zM504 370q0 70 -12 126t-35 95.5t-56 61t-75 21.5t-75 -21.5t-56 -61t-35 -95.5t-12 -126 q0 -69 12 -125t35 -95.5t56 -61t75 -21.5t75 21.5t56 61t35 95.5t12 125z" />
<glyph unicode="1" horiz-adv-x="385" d="M193 0v643q-20 -20 -64.5 -40t-95.5 -27v74q24 3 49.5 13t49 23t43.5 27.5t32 27.5h71v-741h-85z" />
<glyph unicode="2" horiz-adv-x="556" d="M56 0v70q98 98 163 168t103.5 123.5t54.5 95.5t16 84q0 26 -8.5 50t-25 42.5t-41 29.5t-55.5 11q-52 0 -85.5 -19.5t-62.5 -48.5l-57 57q17 18 37.5 34t45.5 28t55 19.5t67 7.5q51 0 92.5 -16.5t70 -45t44 -67t15.5 -82.5q0 -46 -18.5 -94t-57.5 -103t-98.5 -120 t-140.5 -146h338v-78h-452z" />
<glyph unicode="3" horiz-adv-x="570" d="M515 207q0 -43 -18 -82.5t-51.5 -69.5t-81 -48t-105.5 -18q-70 0 -123 25t-84 64l57 57q30 -30 64 -49t86 -19q39 0 69.5 11.5t51 31t31.5 45t11 52.5t-11 52.5t-31.5 45t-51 31.5t-69.5 12h-78v77h78q35 0 62.5 10t46.5 27t29 39.5t10 48.5q0 52 -39 88t-109 36 q-51 0 -85 -19.5t-63 -48.5l-57 57q35 35 84.5 62t120.5 27q55 0 99.5 -15t76 -42t48.5 -64t17 -81q0 -35 -13 -63t-32 -48.5t-41 -33.5t-40 -18q29 -8 55 -26.5t45 -43t30 -53.5t11 -57z" />
<glyph unicode="4" horiz-adv-x="622" d="M475 185v-185h-82v185h-341v74l341 482h82v-478h110v-78h-110zM393 615l-245 -352h245v352z" />
<glyph unicode="5" horiz-adv-x="570" d="M523 230q0 -50 -18 -94t-51.5 -76.5t-81 -51.5t-105.5 -19q-70 0 -123 25t-84 64l57 57q30 -30 64.5 -49t85.5 -19q39 0 69.5 14t51 37t31.5 52t11 60q0 30 -11 59.5t-31.5 52.5t-51 37t-69.5 14t-66.5 -12t-47.5 -27l-75 38v349h408v-78h-323v-218q23 12 47 18.5t57 6.5 q58 0 105.5 -20t81 -53t51.5 -76.5t18 -90.5z" />
<glyph unicode="6" horiz-adv-x="652" d="M593 230q0 -50 -18 -94t-51.5 -76.5t-81 -51.5t-105.5 -19q-70 0 -121 29t-84 80t-49 120.5t-16 151.5q0 85 18.5 155t55 120.5t91.5 78.5t127 28q35 0 67 -8t59 -21t48.5 -29t36.5 -31l-57 -57q-26 26 -63 47t-91 21q-52 0 -90 -21.5t-63 -61t-37.5 -95.5t-12.5 -126 q7 14 22.5 31.5t38.5 32.5t53.5 25.5t66.5 10.5q58 0 105.5 -20t81 -53t51.5 -76.5t18 -90.5zM500 230q0 30 -11 59.5t-32 52.5t-51.5 37t-69.5 14t-69 -14t-50.5 -37t-31.5 -52.5t-11 -59.5q0 -31 11 -60t31.5 -52t51 -37t69.5 -14t69.5 14t51 37t31.5 52t11 60z" />
<glyph unicode="7" horiz-adv-x="556" d="M511 670q-51 -68 -94 -140.5t-78.5 -154t-65 -174.5t-54.5 -201h-97q28 108 57.5 201t64 174t75 152t88.5 136h-374v78h478v-71v0z" />
<glyph unicode="8" horiz-adv-x="622" d="M567 207q0 -43 -18 -82.5t-51.5 -69.5t-81 -48t-105.5 -18t-105 18t-80.5 48t-51.5 69.5t-18 82.5q0 28 11 56.5t29.5 53.5t43.5 43.5t53 25.5q-17 5 -38.5 18t-40 34t-31.5 49t-13 63q0 44 17 81t48.5 64t76 42t99.5 15t99.5 -15t76 -42t48.5 -64t17 -81q0 -35 -13 -63 t-32 -48.5t-40.5 -33.5t-39.5 -18q29 -8 54.5 -26.5t44.5 -43.5t30 -53.5t11 -56.5zM459 550q0 52 -39 88t-109 36q-35 0 -62 -9.5t-46.5 -26.5t-29.5 -39.5t-10 -48.5t10 -48.5t29.5 -39.5t46.5 -27t62 -10t62.5 10t46.5 27t29 39.5t10 48.5zM474 207q0 27 -11 52.5 t-31.5 45t-51 31.5t-69.5 12t-69.5 -12t-51 -31.5t-31.5 -45t-11 -52.5t11 -52.5t31.5 -45t51 -31t69.5 -11.5t69.5 11.5t51 31t31.5 45t11 52.5z" />
<glyph unicode="9" horiz-adv-x="652" d="M585 370q0 -85 -18.5 -155t-55 -120.5t-91.5 -78t-127 -27.5q-35 0 -67 8t-59 21t-49 29t-37 31l58 57q26 -26 63 -47t91 -21q52 0 90 21.5t63 61t37.5 95.5t12.5 125q-7 -14 -22.5 -31.5t-39 -32.5t-53.5 -25.5t-66 -10.5q-59 0 -106 20t-80.5 53.5t-51.5 77t-18 90.5 q0 50 18.5 93.5t52 76.5t80.5 52t105 19q70 0 121 -28.5t84 -80t49 -121.5t16 -152zM478 511q0 31 -11 60t-31.5 52t-51 37t-69.5 14t-69.5 -14t-51 -37t-31.5 -52t-11 -60q0 -30 10.5 -59.5t31.5 -52.5t51.5 -37t70.5 -14q39 0 69 14t50.5 37t31.5 52.5t11 59.5z" />
<glyph unicode=":" d="M81 437v96h97v-96h-97zM81 0v96h97v-96h-97z" />
<glyph unicode=";" d="M81 437v96h97v-96h-97zM125 -96h-64l28 192h100z" />
<glyph unicode="&#x3c;" horiz-adv-x="289" d="M163 89l-104 207l104 208h86l-104 -208l104 -207h-86z" />
<glyph unicode="=" horiz-adv-x="556" d="M44 422v67h467v-67h-467zM44 237v67h467v-67h-467z" />
<glyph unicode="&#x3e;" horiz-adv-x="289" d="M126 89h-86l104 207l-104 208h86l104 -208z" />
<glyph unicode="?" horiz-adv-x="507" d="M456 552q0 -30 -6 -53.5t-17 -43.5t-26 -38t-33 -36l-54 -54q-18 -18 -30 -33t-18.5 -30.5t-9.5 -34.5t-3 -44h-81q0 35 5.5 62.5t15 48.5t22 37t25.5 29l54 54q15 15 26.5 28.5t19.5 29.5t12.5 34.5t4.5 43.5q0 23 -9.5 45t-26.5 39t-41 27.5t-53 10.5q-28 0 -49.5 -6 t-39 -15.5t-31.5 -22t-26 -24.5l-57 57q19 19 39.5 35t45.5 28t54 19t64 7q49 0 90 -16t70.5 -43.5t46 -64t16.5 -76.5zM170 0v96h97v-96h-97z" />
<glyph unicode="@" horiz-adv-x="844" d="M808 378q-4 -47 -22.5 -87t-46.5 -69.5t-63.5 -46.5t-73.5 -17t-58 23t-20 65q-9 -22 -27 -38.5t-40.5 -28t-46 -17.5t-43.5 -6q-37 0 -68 15.5t-52 43t-29.5 66.5t-0.5 86q8 46 30.5 85t53 66.5t67 43t73.5 15.5q20 0 40 -5.5t36.5 -15.5t29 -24t17.5 -32l12 68h65 l-54 -305q-4 -21 2 -37t32 -16q24 0 45 13.5t38 37t28.5 55.5t14.5 69q6 69 -12.5 126.5t-57 99.5t-95.5 65.5t-129 23.5t-133 -28.5t-106.5 -75t-73 -105.5t-33.5 -121q-6 -71 12.5 -131t57 -104t95 -69t127.5 -25q66 0 123 24.5t105 68.5l39 -42q-57 -50 -127.5 -78.5 t-148.5 -28.5q-84 0 -151 31t-113.5 84.5t-69.5 125.5t-17 155q4 72 36 139.5t86 120t127 84t159 31.5q87 0 157 -28.5t118 -79t70.5 -119.5t15.5 -151zM540 367q6 32 0.5 59.5t-19 48t-34.5 32t-48 11.5q-28 0 -53.5 -11.5t-46 -32t-34.5 -48t-20 -59.5t-0.5 -60t19 -48 t34.5 -31.5t48 -11.5t52 11.5t46 31.5t35.5 48t20.5 60z" />
<glyph unicode="A" horiz-adv-x="652" d="M552 0l-68 189h-317l-67 -189h-96l274 741h96l274 -741h-96zM326 634l-131 -367h262z" />
<glyph unicode="B" horiz-adv-x="630" d="M585 211q0 -98 -61.5 -154.5t-190.5 -56.5h-237v741h248q56 0 97 -14.5t68 -39t40.5 -58t13.5 -70.5q0 -35 -11.5 -65.5t-33 -54.5t-51.5 -40t-67 -21q41 -1 75 -14t58.5 -35.5t38 -52.5t13.5 -65zM470 544q0 26 -6 48t-20.5 37.5t-39 24.5t-61.5 9h-158v-248h134 q66 0 108.5 34t42.5 95zM493 215q0 55 -41 88.5t-119 33.5h-148v-259h148q81 0 120.5 35.5t39.5 101.5z" />
<glyph unicode="C" horiz-adv-x="644" d="M618 78q-42 -42 -98 -65.5t-127 -23.5q-78 0 -141.5 28.5t-109 79t-70 120.5t-24.5 153q0 84 24.5 154t70 120.5t109 79t141.5 28.5q71 0 127 -23.5t98 -65.5l-57 -57q-36 35 -75 51.5t-93 16.5q-55 0 -101 -21.5t-79.5 -61t-52.5 -95.5t-19 -126q0 -69 19 -125 t52.5 -95.5t79.5 -61t101 -21.5q54 0 93 16t75 52l57 -57v0z" />
<glyph unicode="D" horiz-adv-x="719" d="M670 370q0 -93 -31 -162.5t-82.5 -115.5t-120 -69t-143.5 -23h-197v741h197q78 0 146.5 -23t119.5 -69t81 -116t30 -163zM578 370q0 75 -22.5 130t-61.5 91.5t-91 54t-110 17.5h-108v-585h108q58 0 110 17.5t91 53.5t61.5 91t22.5 130z" />
<glyph unicode="E" horiz-adv-x="541" d="M96 0v741h378v-78h-289v-248h282v-78h-282v-259h296v-78h-385z" />
<glyph unicode="F" horiz-adv-x="519" d="M185 663v-248h289v-78h-289v-337h-89v741h385v-78h-296z" />
<glyph unicode="G" horiz-adv-x="696" d="M636 48q-44 -24 -105 -41.5t-131 -17.5q-81 0 -146.5 28.5t-111 79t-70 120.5t-24.5 153q0 84 24.5 154t70 120.5t111 79t146.5 28.5q78 0 136 -25t97 -64l-57 -57q-32 31 -73.5 49.5t-102.5 18.5q-57 0 -105 -21.5t-82 -61t-53 -95.5t-19 -126q0 -69 19 -125t53 -95.5 t82 -61t105 -21.5q42 0 81 9t66 23v212h-173v78h262v-341v0z" />
<glyph unicode="H" horiz-adv-x="711" d="M526 0v337h-341v-337h-89v741h89v-326h341v326h89v-741h-89z" />
<glyph unicode="I" horiz-adv-x="281" d="M96 0v741h89v-741h-89z" />
<glyph unicode="J" horiz-adv-x="474" d="M378 185q0 -48 -16 -85.5t-43.5 -63t-63.5 -38.5t-76 -13q-57 0 -101 26t-74 68l56 56q21 -31 52.5 -49.5t66.5 -18.5q49 0 79.5 31t30.5 87v556h89v-556v0z" />
<glyph unicode="K" horiz-adv-x="604" d="M487 0l-302 363v-363h-89v741h89v-348l293 348h111l-315 -363l326 -378h-113z" />
<glyph unicode="L" horiz-adv-x="481" d="M96 0v741h89v-663h296v-78h-385z" />
<glyph unicode="M" horiz-adv-x="896" d="M711 0v636l-212 -636h-102l-212 636v-636h-89v741h140l212 -636l212 636h140v-741h-89z" />
<glyph unicode="N" horiz-adv-x="719" d="M496 -1l-311 623v-622h-89v741h126l311 -622v622h89v-742h-126z" />
<glyph unicode="O" horiz-adv-x="756" d="M707 370q0 -83 -24.5 -153t-68 -120.5t-104 -79t-132.5 -28.5t-133 28.5t-104.5 79t-68 120.5t-24.5 153q0 84 24.5 154t68 120.5t104.5 79t133 28.5t132.5 -28.5t104 -79t68 -120.5t24.5 -154zM615 370q0 70 -19 126t-51 95.5t-75.5 61t-91.5 21.5q-49 0 -92 -21.5 t-75.5 -61t-51 -95.5t-18.5 -126q0 -69 18.5 -125t51 -95.5t75.5 -61t92 -21.5q48 0 91.5 21.5t75.5 61t51 95.5t19 125z" />
<glyph unicode="P" horiz-adv-x="593" d="M563 532q0 -47 -16 -85.5t-47 -66.5t-75 -43t-99 -15h-141v-322h-89v741h230q55 0 99 -16t75 -44t47 -66.5t16 -82.5zM470 531q0 28 -9 52t-27 42t-45 28t-63 10h-141v-263h141q72 0 108 37.5t36 93.5z" />
<glyph unicode="Q" horiz-adv-x="756" d="M681 -30l-134 68q-36 -23 -78.5 -36t-90.5 -13q-72 0 -133 28.5t-104.5 79t-68 120.5t-24.5 153q0 84 24.5 154t68 120.5t104.5 79t133 28.5t132.5 -28.5t104 -79t68 -120.5t24.5 -154q0 -85 -25 -155t-70 -120l129 -65zM615 370q0 70 -19 126t-51 95.5t-75.5 61 t-91.5 21.5q-49 0 -92 -21.5t-75.5 -61t-51 -95.5t-18.5 -126q0 -69 18.5 -125t51 -95.5t75.5 -61t92 -21.5q48 0 91.5 21.5t75.5 61t51 95.5t19 125z" />
<glyph unicode="R" horiz-adv-x="630" d="M498 0l-51 254q-7 38 -31.5 60.5t-66.5 22.5h-164v-337h-89v741h248q56 0 97 -14.5t68 -39t40.5 -58t13.5 -70.5q0 -65 -36.5 -114t-94.5 -66q46 -5 72 -35.5t35 -74.5l54 -269h-95zM470 544q0 26 -6 48t-20.5 37.5t-39 24.5t-61.5 9h-158v-248h134q66 0 108.5 34 t42.5 95z" />
<glyph unicode="S" horiz-adv-x="552" d="M515 204q0 -49 -17 -89t-49 -69t-77.5 -45t-101.5 -16q-41 0 -76.5 8t-64.5 21.5t-52.5 30t-39.5 33.5l57 57q32 -32 77 -52t99 -20q71 0 111.5 39.5t40.5 101.5q0 48 -33.5 78.5t-84.5 47.5l-104 34q-31 10 -58 26.5t-47 40t-31.5 54.5t-11.5 71q0 34 14.5 69.5t44 64.5 t75 47.5t107.5 18.5q69 0 124.5 -25t97.5 -67l-57 -58q-29 29 -71.5 50.5t-93.5 21.5q-38 0 -66 -11t-46.5 -28t-27.5 -39t-9 -44q0 -45 24.5 -71t63.5 -39l105 -35q34 -11 66 -27.5t57 -41.5t40 -58.5t15 -79.5z" />
<glyph unicode="T" horiz-adv-x="556" d="M322 667v-667h-89v667h-226v74h541v-74h-226z" />
<glyph unicode="U" horiz-adv-x="711" d="M615 226q0 -63 -21 -108.5t-56 -75t-82.5 -43.5t-99.5 -14q-53 0 -100 14t-82.5 43.5t-56.5 75t-21 108.5v515h89v-515q0 -40 13 -70.5t36 -51t54.5 -31t67.5 -10.5t67 10.5t54 31t36 51t13 70.5v515h89v-515v0z" />
<glyph unicode="V" horiz-adv-x="630" d="M367 0h-104l-256 741h97l211 -634l211 634h96z" />
<glyph unicode="W" horiz-adv-x="932" d="M724 0h-108l-150 598l-150 -598h-109l-192 741h96l151 -605l151 605h106l151 -605l151 605h96z" />
<glyph unicode="X" horiz-adv-x="658" d="M532 0l-203 313l-203 -313h-107l260 382l-246 359h108l188 -290l187 290h108l-245 -359l260 -382h-107z" />
<glyph unicode="Y" horiz-adv-x="557" d="M323 342v-342h-89v342l-271 399h107l209 -320l208 320h107z" />
<glyph unicode="Z" horiz-adv-x="519" d="M37 0v78l341 585h-334v78h430v-78l-341 -585h348v-78h-444z" />
<glyph unicode="[" horiz-adv-x="311" d="M89 -37v815h178v-71h-97v-674h97v-70h-178z" />
<glyph unicode="\" horiz-adv-x="296" d="M222 -37l-203 815h55l204 -815h-56z" />
<glyph unicode="]" horiz-adv-x="311" d="M44 -37v70h97v674h-97v71h178v-815h-178z" />
<glyph unicode="^" horiz-adv-x="333" d="M229 585l-62 107l-63 -107h-78l96 171h89l96 -171h-78z" />
<glyph unicode="_" horiz-adv-x="363" d="M0 0v59h363v-59h-363z" />
<glyph unicode="`" horiz-adv-x="333" d="M196 585l-122 171h100l85 -171h-63z" />
<glyph unicode="a" horiz-adv-x="563" d="M393 0v89q-16 -44 -60 -72t-107 -28q-35 0 -65.5 12t-53 33t-35.5 49.5t-13 60.5q0 31 12.5 61.5t41 55t74.5 39.5t113 15h93v55q0 20 -9 39t-25 33.5t-38.5 23t-50.5 8.5q-48 0 -79 -14t-54 -37l-52 52q31 31 75.5 52t109.5 21q47 0 85 -13.5t64.5 -37.5t40.5 -56.5 t14 -70.5v-370h-81zM393 244h-104q-39 0 -66.5 -9t-45 -23.5t-25.5 -32.5t-8 -35q0 -36 26 -58.5t74 -22.5q39 0 67 16.5t46.5 40t27 48.5t8.5 43v33z" />
<glyph unicode="b" horiz-adv-x="619" d="M574 267q0 -64 -19.5 -115.5t-51.5 -87.5t-74 -55.5t-88 -19.5q-25 0 -51.5 6.5t-49.5 18.5t-41.5 29t-28.5 38v-81h-81v741h81v-293q10 22 28.5 40t41.5 30.5t49.5 19t51.5 6.5q46 0 88 -19.5t74 -55.5t51.5 -87t19.5 -115zM489 267q0 46 -12 83.5t-33 64t-50.5 41 t-63.5 14.5q-33 0 -62.5 -14.5t-51 -41t-34 -64t-12.5 -83.5t12.5 -83.5t34 -64.5t51 -41.5t62.5 -14.5t62 14.5t50.5 41.5t34 64.5t12.5 83.5z" />
<glyph unicode="c" horiz-adv-x="489" d="M459 59q-32 -33 -76 -51.5t-87 -18.5q-53 0 -98.5 20.5t-80 57.5t-54 88t-19.5 112t19.5 112t54 87.5t80 57t98.5 20.5q43 0 87 -18t76 -51l-52 -52q-22 23 -50.5 35t-60.5 12q-36 0 -66.5 -15t-52.5 -42t-34.5 -64.5t-12.5 -81.5q0 -45 12.5 -82.5t34.5 -64.5t52.5 -42 t66.5 -15q32 0 60.5 12.5t50.5 34.5l52 -51v0z" />
<glyph unicode="d" horiz-adv-x="619" d="M448 0v81q-10 -21 -28.5 -38t-41.5 -29t-49 -18.5t-51 -6.5q-46 0 -88 19.5t-74.5 55.5t-52 87.5t-19.5 115.5t19.5 115t52 87t74.5 55.5t88 19.5q25 0 51 -6.5t49 -19t41.5 -30.5t28.5 -40v293h82v-741h-82zM448 267q0 46 -12.5 83.5t-34 64t-50.5 41t-62 14.5 q-35 0 -64 -14.5t-50 -41t-33 -64t-12 -83.5t12.5 -83.5t34 -64.5t50.5 -41.5t62 -14.5t62 14.5t50.5 41.5t34 64.5t12.5 83.5z" />
<glyph unicode="e" horiz-adv-x="548" d="M130 241q4 -38 17.5 -70.5t35 -56.5t52 -37.5t69.5 -13.5q74 0 122 47l52 -51q-36 -36 -76 -53t-98 -17q-56 0 -103.5 20.5t-82 57.5t-54.5 88t-20 112t18.5 112t50 87.5t74 57t91.5 20.5q44 0 85.5 -17t73.5 -53.5t51 -94t19 -138.5h-377zM415 315q-4 33 -15.5 61.5 t-29.5 49t-41 32.5t-51 12t-52.5 -12t-43.5 -32.5t-31.5 -49t-16.5 -61.5h281z" />
<glyph unicode="f" horiz-adv-x="370" d="M333 670q-22 8 -45 8q-44 0 -62.5 -18.5t-18.5 -52.5v-74h123v-70h-123v-463h-81v463h-104v70h104v89q0 24 9 46.5t26.5 40t44 28.5t61.5 11q17 0 36.5 -2.5t29.5 -4.5v-71v0z" />
<glyph unicode="g" horiz-adv-x="619" d="M530 37q0 -49 -17 -91.5t-50 -74t-80.5 -49.5t-108.5 -18q-72 0 -120.5 23t-79.5 54l52 52q20 -20 56 -37.5t92 -17.5q36 0 67.5 11.5t55.5 32t37.5 50t13.5 65.5v67q-20 -42 -64.5 -71t-105.5 -29q-46 0 -88 19.5t-74.5 54.5t-52 85t-19.5 111t19.5 111t52 85t74.5 54.5 t88 19.5q61 0 105.5 -28.5t64.5 -67.5v85h82v-496zM448 274q0 42 -12.5 77.5t-34 62t-50.5 41.5t-62 15t-62 -15t-50.5 -41.5t-34 -62t-12.5 -77.5q0 -43 12 -79t33 -62t50 -40.5t64 -14.5q33 0 62 14.5t50.5 40.5t34 62t12.5 79z" />
<glyph unicode="h" horiz-adv-x="622" d="M452 0v341q0 64 -33 96.5t-89 32.5q-70 0 -115 -51.5t-45 -151.5v-267h-81v741h81v-297q16 44 60.5 72t110.5 28q89 0 140.5 -54t51.5 -149v-341h-81z" />
<glyph unicode="i" d="M85 652v89h89v-89h-89zM89 0v533h81v-533h-81z" />
<glyph unicode="j" horiz-adv-x="267" d="M93 652v89h88v-89h-88zM178 -67q0 -24 -9 -46.5t-26.5 -40t-44 -28.5t-61.5 -11q-17 0 -36.5 2.5t-30.5 5.5v70q11 -3 22.5 -5t23.5 -2q44 0 62 18.5t18 51.5v585h82v-600z" />
<glyph unicode="k" horiz-adv-x="533" d="M426 0l-256 256v-256h-81v741h81v-452l245 244h111l-267 -259l285 -274h-118z" />
<glyph unicode="l" d="M89 0v741h81v-741h-81z" />
<glyph unicode="m" horiz-adv-x="904" d="M733 0v341q0 64 -24.5 96.5t-78.5 32.5q-26 0 -50.5 -13t-43.5 -39t-31 -64t-12 -87v-267h-82v341q0 64 -25 96.5t-79 32.5q-25 0 -49.5 -13t-44 -39t-31.5 -64t-12 -87v-267h-81v533h81v-89q20 46 57.5 73t94.5 27q37 0 64.5 -11t46 -28t30 -36.5t16.5 -35.5 q26 54 67.5 82.5t97.5 28.5q82 0 126.5 -54t44.5 -149v-341h-82z" />
<glyph unicode="n" horiz-adv-x="622" d="M452 0v341q0 64 -33 96.5t-89 32.5q-70 0 -115 -51.5t-45 -151.5v-267h-81v533h81v-89q16 44 60.5 72t110.5 28q89 0 140.5 -54t51.5 -149v-341h-81z" />
<glyph unicode="o" horiz-adv-x="578" d="M533 267q0 -64 -19.5 -115.5t-52.5 -87.5t-77.5 -55.5t-94.5 -19.5t-94.5 19.5t-78 55.5t-53 87.5t-19.5 115.5t19.5 115t53 87t78 55.5t94.5 19.5t94.5 -19.5t77.5 -55.5t52.5 -87t19.5 -115zM448 267q0 46 -12 83.5t-33 64t-50.5 41t-63.5 14.5q-33 0 -62 -14.5 t-50.5 -41t-34 -64t-12.5 -83.5t12.5 -83.5t34 -64.5t50.5 -41.5t62 -14.5t62 14.5t50.5 41.5t34 64.5t12.5 83.5z" />
<glyph unicode="p" horiz-adv-x="619" d="M574 267q0 -64 -19.5 -115.5t-51.5 -87.5t-74 -55.5t-88 -19.5q-25 0 -51.5 6.5t-49.5 18.5t-41.5 29t-28.5 38v-266h-81v718h81v-85q10 22 28.5 40t41.5 30.5t49.5 19t51.5 6.5q46 0 88 -19.5t74 -55.5t51.5 -87t19.5 -115zM489 267q0 46 -12 83.5t-33 64t-50.5 41 t-63.5 14.5q-33 0 -62.5 -14.5t-51 -41t-34 -64t-12.5 -83.5t12.5 -83.5t34 -64.5t51 -41.5t62.5 -14.5t62 14.5t50.5 41.5t34 64.5t12.5 83.5z" />
<glyph unicode="q" horiz-adv-x="619" d="M448 -185v266q-10 -21 -28.5 -38t-41.5 -29t-49 -18.5t-51 -6.5q-46 0 -88 19.5t-74.5 55.5t-52 87.5t-19.5 115.5t19.5 115t52 87t74.5 55.5t88 19.5q25 0 51 -6.5t49 -19t41.5 -30.5t28.5 -40v85h82v-718h-82zM448 267q0 46 -12.5 83.5t-34 64t-50.5 41t-62 14.5 q-35 0 -64 -14.5t-50 -41t-33 -64t-12 -83.5t12.5 -83.5t34 -64.5t50.5 -41.5t62 -14.5t62 14.5t50.5 41.5t34 64.5t12.5 83.5z" />
<glyph unicode="r" horiz-adv-x="370" d="M348 467q-178 0 -178 -200v-267h-81v533h81v-81q26 51 68.5 71.5t109.5 20.5v-77v0z" />
<glyph unicode="s" horiz-adv-x="448" d="M411 140q0 -30 -12 -58t-36 -49.5t-60 -34.5t-84 -13q-59 0 -107 23t-75 51l52 51q18 -17 52 -34t78 -17q51 0 79 23t28 58q0 28 -19 48t-61 34l-80 27q-64 21 -93 57.5t-29 89.5q0 29 11.5 56.5t35 48.5t58 34t81.5 13q58 0 100.5 -21t73.5 -52l-52 -52 q-20 20 -48.5 35.5t-73.5 15.5q-25 0 -44 -7t-31.5 -18t-18.5 -25t-6 -28q0 -27 18 -44t56 -30l80 -26q68 -23 97.5 -63t29.5 -93z" />
<glyph unicode="t" horiz-adv-x="370" d="M333 0q-10 -3 -29.5 -5t-36.5 -2q-35 0 -61.5 11t-44 28.5t-26.5 40t-9 46.5v344h-104v70h104v152h81v-152h123v-70h-123v-330q0 -33 18.5 -51.5t62.5 -18.5q12 0 23 2t22 5v-70v0z" />
<glyph unicode="u" horiz-adv-x="622" d="M452 0v89q-16 -44 -60.5 -72t-110.5 -28q-89 0 -140.5 54.5t-51.5 149.5v340h81v-340q0 -65 33.5 -97.5t89.5 -32.5q69 0 114 51.5t45 152.5v266h81v-533h-81z" />
<glyph unicode="v" horiz-adv-x="541" d="M315 0h-96l-212 533h93l167 -448l174 448h92z" />
<glyph unicode="w" horiz-adv-x="790" d="M610 0h-103l-112 403l-112 -403h-104l-157 533h91l118 -437l122 437h84l122 -437l117 437h91z" />
<glyph unicode="x" horiz-adv-x="533" d="M406 0l-139 209l-140 -209h-97l189 274l-180 259h100l127 -192l128 192h101l-180 -259l189 -274h-98z" />
<glyph unicode="y" horiz-adv-x="541" d="M268 -112q-3 -8 -11 -21.5t-23 -26.5t-39 -23t-59 -10q-17 0 -36.5 2.5t-29.5 5.5v70q11 -3 22 -5t23 -2q22 0 35.5 4t21.5 10.5t12.5 14t7.5 14.5l29 72l-214 540h93l167 -448l174 448h92z" />
<glyph unicode="z" horiz-adv-x="452" d="M44 0v70l260 393h-252v70h348v-70l-259 -389h266v-74h-363z" />
<glyph unicode="{" horiz-adv-x="356" d="M263 -44q-24 0 -46 9.5t-38 25.5t-25.5 37.5t-9.5 45.5v178q0 34 -23.5 57.5t-57.5 23.5h-22v74h22q33 0 57 24t24 58v178q0 24 9.5 45.5t25.5 37.5t38 25.5t46 9.5h61v-66h-50q-20 0 -34 -14.5t-14 -34.5v-181q0 -23 -8.5 -43.5t-22.5 -36.5t-33 -26t-40 -13 q21 -3 40 -13t33 -26t22.5 -36t8.5 -43v-182q0 -20 14 -34t34 -14h50v-66h-61z" />
<glyph unicode="|" horiz-adv-x="319" d="M130 -185v926h59v-926h-59z" />
<glyph unicode="}" horiz-adv-x="356" d="M293 333q-35 0 -58.5 -23.5t-23.5 -57.5v-178q0 -24 -9.5 -45.5t-25.5 -37.5t-37.5 -25.5t-45.5 -9.5h-62v66h50q20 0 34.5 14t14.5 34v182q0 23 8.5 43t22.5 36t32.5 26t39.5 13q-21 3 -39.5 13t-32.5 26t-22.5 36.5t-8.5 43.5v181q0 20 -14.5 34.5t-34.5 14.5h-50v66 h62q24 0 45.5 -9.5t37.5 -25.5t25.5 -37.5t9.5 -45.5v-178q0 -34 24 -58t58 -24h22v-74h-22z" />
<glyph unicode="~" horiz-adv-x="424" d="M354 292q-15 -15 -35 -24t-43 -9q-24 0 -44.5 9.5t-34.5 23.5l-12 12q-15 15 -36 15q-11 0 -21 -4.5t-16 -10.5l-45 -45l-41 42l44 44q15 15 35.5 24t43.5 9q24 0 42.5 -7.5t35.5 -25.5l12 -12q15 -14 37 -14q11 0 20.5 4t16.5 10l44 45l42 -42z" />
<glyph unicode="&#xa1;" horiz-adv-x="281" d="M93 644v97h96v-97h-96zM89 0l18 556h67l19 -556h-104z" />
<glyph unicode="&#xa2;" horiz-adv-x="489" d="M459 162q-32 -32 -74.5 -50t-84.5 -19v-93h-44v96q-45 7 -84 30.5t-67.5 59.5t-44.5 82.5t-16 101.5t16 102t44.5 83t67.5 59t84 30v97h44v-93q42 -1 84.5 -19t74.5 -50l-52 -52q-21 22 -49 34t-58 13v-407q30 0 58 12.5t49 34.5zM256 569q-57 -16 -91.5 -69.5 t-34.5 -129.5q0 -75 35 -128.5t91 -69.5v397z" />
<glyph unicode="&#xa3;" horiz-adv-x="544" d="M470 606q-13 13 -27 25t-30.5 21.5t-37 15.5t-45.5 6q-27 0 -50 -11t-39 -29.5t-25 -42.5t-9 -50v-171h126v-48h-126v-244h317v-78h-487v78h85v244h-85v48h85v171q0 44 14.5 82.5t41.5 67t65.5 45t86.5 16.5q39 0 68.5 -8t53 -21t41.5 -28.5t34 -31.5z" />
<glyph unicode="&#xa5;" horiz-adv-x="601" d="M377 390h150v-48h-182v-66h182v-49h-182v-227h-89v227h-182v49h182v66h-182v48h150l-239 351h108l208 -320l208 320h107z" />
<glyph unicode="&#xa6;" horiz-adv-x="319" d="M130 426v352h59v-352h-59zM130 -37v352h59v-352h-59z" />
<glyph unicode="&#xa7;" horiz-adv-x="463" d="M419 344q0 -30 -11.5 -57.5t-34.5 -49.5q38 -38 38 -100q0 -29 -11.5 -56t-34.5 -48.5t-58 -34.5t-81 -13q-58 0 -100.5 21.5t-73.5 52.5l52 51q20 -20 48.5 -35.5t73.5 -15.5q25 0 44 7t31.5 18t18.5 25t6 28q0 27 -18 44t-56 30l-80 27q-69 23 -98.5 63t-29.5 92 q0 30 11.5 57.5t34.5 49.5q-38 38 -38 100q0 28 11.5 55.5t34.5 49t57.5 34.5t81.5 13q58 0 100.5 -21.5t73.5 -51.5l-52 -52q-20 20 -48.5 35.5t-73.5 15.5q-25 0 -44 -7t-31.5 -18t-18.5 -25t-6 -28q0 -27 18 -44t56 -30l80 -27q69 -23 98.5 -63t29.5 -92zM333 344 q0 28 -18.5 48t-61.5 34l-89 30q-34 -23 -34 -63q0 -28 18.5 -48t61.5 -34l89 -30q34 23 34 63z" />
<glyph unicode="&#xa8;" horiz-adv-x="289" d="M189 656v81h81v-81h-81zM19 656v81h81v-81h-81z" />
<glyph unicode="&#xa9;" horiz-adv-x="867" d="M804 370q0 -77 -29 -144t-79.5 -117.5t-118 -79.5t-144.5 -29t-144 29t-117.5 79.5t-79.5 117.5t-29 144t29 144.5t79.5 118t117.5 79.5t144 29t144.5 -29t118 -79.5t79.5 -118t29 -144.5zM763 370q0 69 -26 129t-70.5 104.5t-104.5 70.5t-129 26q-68 0 -128 -26 t-104.5 -70.5t-70.5 -104.5t-26 -129q0 -68 26 -128t70.5 -104.5t104.5 -70.5t128 -26q69 0 129 26t104.5 70.5t70.5 104.5t26 128zM586 177q-27 -27 -64.5 -42.5t-83.5 -15.5q-51 0 -93 18.5t-72 52t-46.5 79.5t-16.5 101t16.5 101.5t46.5 80t72 52t93 18.5 q46 0 83.5 -15.5t64.5 -42.5l-38 -38q-23 23 -49 34t-61 11q-36 0 -67 -14t-53 -40.5t-34.5 -63.5t-12.5 -83t12.5 -83t34.5 -63t53 -40t67 -14q35 0 61 11t49 34z" />
<glyph unicode="&#xaa;" horiz-adv-x="404" d="M281 370v62q-11 -30 -41.5 -49.5t-74.5 -19.5q-24 0 -45 8.5t-36.5 22.5t-24.5 33.5t-9 42.5q0 22 8.5 43t28 38t51.5 27.5t78 10.5h65v38q0 29 -23.5 50.5t-61.5 21.5q-33 0 -55 -10t-38 -25l-36 36q22 21 53 36t76 15q66 0 103.5 -35t37.5 -89v-257h-56zM281 540h-72 q-27 0 -46 -6.5t-31.5 -16.5t-18 -22.5t-5.5 -24.5q0 -25 18 -40.5t52 -15.5q27 0 46.5 11.5t32 27.5t18.5 34t6 30v23z" />
<glyph unicode="&#xab;" horiz-adv-x="444" d="M319 89l-104 207l104 208h85l-103 -208l103 -207h-85zM163 89l-104 207l104 208h86l-104 -208l104 -207h-86z" />
<glyph unicode="&#xae;" horiz-adv-x="867" d="M804 370q0 -77 -29 -144t-79.5 -117.5t-118 -79.5t-144.5 -29t-144 29t-117.5 79.5t-79.5 117.5t-29 144t29 144.5t79.5 118t117.5 79.5t144 29t144.5 -29t118 -79.5t79.5 -118t29 -144.5zM763 370q0 69 -26 129t-70.5 104.5t-104.5 70.5t-129 26q-68 0 -128 -26 t-104.5 -70.5t-70.5 -104.5t-26 -129q0 -68 26 -128t70.5 -104.5t104.5 -70.5t128 -26q69 0 129 26t104.5 70.5t70.5 104.5t26 128zM549 126l-33 168q-5 25 -21.5 40t-44.5 15h-108v-223h-58v489h163q37 0 64 -9.5t45 -26t27 -38t9 -46.5q0 -43 -24.5 -75.5t-62.5 -43.5 q31 -3 48 -23t23 -49l35 -178h-62zM342 400h88q45 0 72.5 22.5t27.5 62.5q0 35 -17.5 57t-65.5 22h-105v-164z" />
<glyph unicode="&#xaf;" horiz-adv-x="333" d="M56 659v63h222v-63h-222z" />
<glyph unicode="&#xb0;" horiz-adv-x="356" d="M319 611q0 -29 -11 -55t-30 -45t-45 -30t-55 -11t-55 11t-45 30t-30 45t-11 55t11 55t30 45t45 30t55 11t55 -11t45 -30t30 -45t11 -55zM259 611q0 34 -23.5 58t-57.5 24t-58 -24t-24 -58t24 -57.5t58 -23.5t57.5 23.5t23.5 57.5z" />
<glyph unicode="&#xb1;" horiz-adv-x="556" d="M311 385v-200h-67v200h-200v67h200v200h67v-200h200v-67h-200zM44 74v67h467v-67h-467z" />
<glyph unicode="&#xb2;" horiz-adv-x="381" d="M37 247v46q66 65 109 112t69 82.5t36.5 63.5t10.5 56q0 17 -5.5 33t-16.5 28.5t-27 20t-37 7.5q-35 0 -57 -13t-42 -33l-38 38q23 23 55 41t82 18q34 0 61.5 -11t46.5 -30t29.5 -44.5t10.5 -54.5q0 -31 -12.5 -62.5t-38 -68.5t-65.5 -80t-94 -97h225v-52h-302z" />
<glyph unicode="&#xb3;" horiz-adv-x="422" d="M360 384q0 -29 -12 -55t-34.5 -46t-53.5 -32t-70 -12q-48 0 -83 17t-55 43l38 37q20 -20 42.5 -32.5t57.5 -12.5q52 0 80.5 28.5t28.5 64.5q0 18 -7.5 35.5t-21.5 30.5t-34 21t-46 8h-52v51h52q47 0 73 24t26 59t-26 59t-73 24q-35 0 -57 -13t-42 -33l-38 38q23 23 56 41 t81 18q73 0 116.5 -37.5t43.5 -96.5q0 -24 -8.5 -42.5t-21 -32t-27 -22.5t-26.5 -12q19 -5 36 -17t30 -28.5t20 -36t7 -38.5z" />
<glyph unicode="&#xb4;" horiz-adv-x="333" d="M138 585h-64l85 171h100z" />
<glyph unicode="&#xb6;" horiz-adv-x="548" d="M381 -185v855h-70v-855h-78v518q-42 0 -79 16t-64.5 44t-43.5 65t-16 79t16 79t43.5 65t64.5 44t79 16h226v-926h-78z" />
<glyph unicode="&#xb7;" d="M81 248v96h97v-96h-97z" />
<glyph unicode="&#xb8;" horiz-adv-x="348" d="M267 -111q0 -14 -7.5 -28t-21.5 -25t-35.5 -18t-48.5 -7q-31 0 -51 9.5t-36 21.5l29 30q9 -8 23 -14t31 -6q27 0 40 11.5t13 25.5q0 17 -18 28t-55 11l35 72h52l-19 -39q26 -4 47.5 -22t21.5 -50z" />
<glyph unicode="&#xb9;" horiz-adv-x="326" d="M150 247v429q-13 -13 -42.5 -26.5t-63.5 -18.5v50q16 2 33.5 8.5t33 15.5t29 18.5t21.5 17.5h46v-494h-57z" />
<glyph unicode="&#xba;" horiz-adv-x="428" d="M384 556q0 -45 -13.5 -80.5t-36.5 -60.5t-54 -38.5t-66 -13.5t-66 13.5t-54 38.5t-36.5 60.5t-13.5 80.5q0 44 13.5 79.5t36.5 60.5t54 38.5t66 13.5t66 -13.5t54 -38.5t36.5 -60.5t13.5 -79.5zM324 556q0 64 -30.5 102.5t-79.5 38.5q-47 0 -78.5 -38.5t-31.5 -102.5 q0 -65 31.5 -103.5t78.5 -38.5t78.5 38.5t31.5 103.5z" />
<glyph unicode="&#xbb;" horiz-adv-x="444" d="M281 89h-85l103 207l-103 208h85l104 -208zM126 89h-86l104 207l-104 208h86l104 -208z" />
<glyph unicode="&#xbc;" horiz-adv-x="796" d="M676 124v-124h-54v124h-228v49l228 321h54v-318h74v-52h-74zM159 -37h-63l482 815h63zM150 247v429q-13 -13 -42.5 -26.5t-63.5 -18.5v50q16 2 33.5 8.5t33 15.5t29 18.5t21.5 17.5h46v-494h-57zM622 410l-163 -234h163v234z" />
<glyph unicode="&#xbd;" horiz-adv-x="837" d="M500 0v47q66 65 109 112t69 82.5t36.5 63.5t10.5 55q0 17 -5.5 33t-16.5 28.5t-27 20t-37 7.5q-35 0 -57 -12.5t-42 -32.5l-39 37q24 24 56 42t82 18q34 0 61.5 -11t46.5 -30t29.5 -44.5t10.5 -55.5t-12.5 -62t-38.5 -68.5t-65.5 -80t-93.5 -97.5h225v-52h-302zM159 -37 h-63l482 815h63zM150 247v429q-13 -13 -42.5 -26.5t-63.5 -18.5v50q16 2 33.5 8.5t33 15.5t29 18.5t21.5 17.5h46v-494h-57z" />
<glyph unicode="&#xbe;" horiz-adv-x="907" d="M787 124v-124h-54v124h-228v49l228 321h54v-318h74v-52h-74zM270 -37h-63l482 815h63zM360 384q0 -29 -12 -55t-34.5 -46t-53.5 -32t-70 -12q-48 0 -83 17t-55 43l38 37q20 -20 42.5 -32.5t57.5 -12.5q52 0 80.5 28.5t28.5 64.5q0 18 -7.5 35.5t-21.5 30.5t-34 21t-46 8 h-52v51h52q47 0 73 24t26 59t-26 59t-73 24q-35 0 -57 -13t-42 -33l-38 38q23 23 56 41t81 18q73 0 116.5 -37.5t43.5 -96.5q0 -24 -8.5 -42.5t-21 -32t-27 -22.5t-26.5 -12q19 -5 36 -17t30 -28.5t20 -36t7 -38.5zM733 410l-163 -234h163v234z" />
<glyph unicode="&#xbf;" horiz-adv-x="507" d="M241 644v97h96v-97h-96zM478 78q-38 -38 -86 -63.5t-118 -25.5q-49 0 -89.5 16t-70 43.5t-46 63.5t-16.5 77q0 30 6 53.5t16.5 43.5t25.5 37.5t33 35.5l54 54q18 18 30 33t18.5 30.5t9.5 34.5t3 45h82q0 -36 -6 -63t-15.5 -48t-22 -37t-25.5 -29l-54 -55 q-14 -14 -26 -27.5t-20 -29.5t-12.5 -34.5t-4.5 -43.5q0 -23 9.5 -45t27 -39t41 -27.5t52.5 -10.5q56 0 89.5 21.5t57.5 46.5z" />
<glyph unicode="&#xc0;" horiz-adv-x="652" d="M343 774l-122 170h100l86 -170h-64zM552 0l-68 189h-317l-67 -189h-96l274 741h96l274 -741h-96zM326 634l-131 -367h262z" />
<glyph unicode="&#xc1;" horiz-adv-x="652" d="M304 774h-63l85 170h100zM552 0l-68 189h-317l-67 -189h-96l274 741h96l274 -741h-96zM326 634l-131 -367h262z" />
<glyph unicode="&#xc2;" horiz-adv-x="652" d="M388 774l-62 107l-62 -107h-79l96 170h89l97 -170h-79zM552 0l-68 189h-317l-67 -189h-96l274 741h96l274 -741h-96zM326 634l-131 -367h262z" />
<glyph unicode="&#xc3;" horiz-adv-x="652" d="M504 885q0 -23 -8.5 -43t-23.5 -35t-35.5 -24t-43.5 -9t-43.5 9t-34.5 24l-12 12q-14 14 -36 14t-37 -15t-15 -37h-59q0 23 8.5 43.5t23.5 35.5t35.5 24t43.5 9q24 0 42 -7.5t36 -25.5l12 -12q15 -15 36 -15t36.5 15.5t15.5 36.5h59zM552 0l-68 189h-317l-67 -189h-96 l274 741h96l274 -741h-96zM326 634l-131 -367h262z" />
<glyph unicode="&#xc4;" horiz-adv-x="652" d="M370 822v82h82v-82h-82zM200 822v82h81v-82h-81zM552 0l-68 189h-317l-67 -189h-96l274 741h96l274 -741h-96zM326 634l-131 -367h262z" />
<glyph unicode="&#xc5;" horiz-adv-x="652" d="M407 852q0 -34 -24 -58t-57 -24q-34 0 -58 24t-24 58q0 33 24 57t58 24q33 0 57 -24t24 -57zM552 0l-68 189h-317l-67 -189h-96l274 741h96l274 -741h-96zM381 852q0 23 -16 39t-39 16t-39.5 -16t-16.5 -39t16.5 -39.5t39.5 -16.5t39 16.5t16 39.5zM326 634l-131 -367 h262z" />
<glyph unicode="&#xc6;" horiz-adv-x="867" d="M422 0v189h-275l-110 -189h-100l441 741h422v-78h-289v-248h282v-78h-282v-259h296v-78h-385zM422 663l-230 -396h230v396z" />
<glyph unicode="&#xc7;" horiz-adv-x="644" d="M618 78q-41 -41 -94.5 -64t-121.5 -25l-14 -28q26 -4 48 -22t22 -50q0 -14 -7.5 -28t-22 -25t-35.5 -18t-49 -7q-31 0 -50.5 9.5t-36.5 21.5l30 30q9 -8 22.5 -14t31.5 -6q26 0 39 11.5t13 25.5q0 17 -17.5 28t-55.5 11l31 63q-69 7 -125 38.5t-95.5 81t-61 115.5 t-21.5 144q0 84 24.5 154t70 120.5t109 79t141.5 28.5q71 0 127 -23.5t98 -65.5l-57 -57q-36 35 -75 51.5t-93 16.5q-55 0 -101 -21.5t-79.5 -61t-52.5 -95.5t-19 -126q0 -69 19 -125t52.5 -95.5t79.5 -61t101 -21.5q54 0 93 16t75 52l57 -57v0z" />
<glyph unicode="&#xc8;" horiz-adv-x="541" d="M307 774l-122 170h100l85 -170h-63zM96 0v741h378v-78h-289v-248h282v-78h-282v-259h296v-78h-385z" />
<glyph unicode="&#xc9;" horiz-adv-x="541" d="M286 774h-64l85 170h100zM96 0v741h378v-78h-289v-248h282v-78h-282v-259h296v-78h-385z" />
<glyph unicode="&#xca;" horiz-adv-x="541" d="M351 774l-62 107l-62 -107h-79l96 170h89l97 -170h-79zM96 0v741h378v-78h-289v-248h282v-78h-282v-259h296v-78h-385z" />
<glyph unicode="&#xcb;" horiz-adv-x="541" d="M337 822v82h82v-82h-82zM167 822v82h81v-82h-81zM96 0v741h378v-78h-289v-248h282v-78h-282v-259h296v-78h-385z" />
<glyph unicode="&#xcc;" horiz-adv-x="281" d="M140 774l-121 170h100l85 -170h-64zM96 0v741h89v-741h-89z" />
<glyph unicode="&#xcd;" horiz-adv-x="281" d="M141 774h-63l85 170h100zM96 0v741h89v-741h-89z" />
<glyph unicode="&#xce;" horiz-adv-x="281" d="M203 774l-62 107l-62 -107h-79l96 170h89l96 -170h-78zM96 0v741h89v-741h-89z" />
<glyph unicode="&#xcf;" horiz-adv-x="281" d="M185 822v82h82v-82h-82zM15 822v82h81v-82h-81zM96 0v741h89v-741h-89z" />
<glyph unicode="&#xd0;" horiz-adv-x="719" d="M670 370q0 -93 -31 -162.5t-82.5 -115.5t-120 -69t-143.5 -23h-197v337h-77v67h77v337h197q78 0 146.5 -23t119.5 -69t81 -116t30 -163zM578 370q0 75 -22.5 130t-61.5 91.5t-91 54t-110 17.5h-108v-259h78v-67h-78v-259h108q58 0 110 17.5t91 53.5t61.5 91t22.5 130z " />
<glyph unicode="&#xd1;" horiz-adv-x="719" d="M534 885q0 -23 -9 -43t-24 -35t-35 -24t-43 -9t-43.5 9t-35.5 24l-11 12q-15 14 -37 14t-37 -15t-15 -37h-59q0 23 9 43.5t24 35.5t35 24t43 9q25 0 43 -7.5t36 -25.5l12 -12q15 -15 36 -15t36.5 15.5t15.5 36.5h59zM496 -1l-311 623v-622h-89v741h126l311 -622v622h89 v-742h-126z" />
<glyph unicode="&#xd2;" horiz-adv-x="756" d="M346 774l-122 170h100l86 -170h-64zM707 370q0 -83 -24.5 -153t-68 -120.5t-104 -79t-132.5 -28.5t-133 28.5t-104.5 79t-68 120.5t-24.5 153q0 84 24.5 154t68 120.5t104.5 79t133 28.5t132.5 -28.5t104 -79t68 -120.5t24.5 -154zM615 370q0 70 -19 126t-51 95.5 t-75.5 61t-91.5 21.5q-49 0 -92 -21.5t-75.5 -61t-51 -95.5t-18.5 -126q0 -69 18.5 -125t51 -95.5t75.5 -61t92 -21.5q48 0 91.5 21.5t75.5 61t51 95.5t19 125z" />
<glyph unicode="&#xd3;" horiz-adv-x="756" d="M408 774h-64l86 170h100zM707 370q0 -83 -24.5 -153t-68 -120.5t-104 -79t-132.5 -28.5t-133 28.5t-104.5 79t-68 120.5t-24.5 153q0 84 24.5 154t68 120.5t104.5 79t133 28.5t132.5 -28.5t104 -79t68 -120.5t24.5 -154zM615 370q0 70 -19 126t-51 95.5t-75.5 61 t-91.5 21.5q-49 0 -92 -21.5t-75.5 -61t-51 -95.5t-18.5 -126q0 -69 18.5 -125t51 -95.5t75.5 -61t92 -21.5q48 0 91.5 21.5t75.5 61t51 95.5t19 125z" />
<glyph unicode="&#xd4;" horiz-adv-x="756" d="M440 774l-62 107l-62 -107h-79l96 170h89l97 -170h-79zM707 370q0 -83 -24.5 -153t-68 -120.5t-104 -79t-132.5 -28.5t-133 28.5t-104.5 79t-68 120.5t-24.5 153q0 84 24.5 154t68 120.5t104.5 79t133 28.5t132.5 -28.5t104 -79t68 -120.5t24.5 -154zM615 370 q0 70 -19 126t-51 95.5t-75.5 61t-91.5 21.5q-49 0 -92 -21.5t-75.5 -61t-51 -95.5t-18.5 -126q0 -69 18.5 -125t51 -95.5t75.5 -61t92 -21.5q48 0 91.5 21.5t75.5 61t51 95.5t19 125z" />
<glyph unicode="&#xd5;" horiz-adv-x="756" d="M552 885q0 -23 -9 -43t-24 -35t-35 -24t-43 -9t-44 9t-35 24l-12 12q-14 14 -36 14t-37 -15t-15 -37h-59q0 23 9 43.5t24 35.5t35 24t43 9q25 0 43 -7.5t36 -25.5l11 -12q16 -15 37 -15t36.5 15.5t15.5 36.5h59zM707 370q0 -83 -24.5 -153t-68 -120.5t-104 -79 t-132.5 -28.5t-133 28.5t-104.5 79t-68 120.5t-24.5 153q0 84 24.5 154t68 120.5t104.5 79t133 28.5t132.5 -28.5t104 -79t68 -120.5t24.5 -154zM615 370q0 70 -19 126t-51 95.5t-75.5 61t-91.5 21.5q-49 0 -92 -21.5t-75.5 -61t-51 -95.5t-18.5 -126q0 -69 18.5 -125 t51 -95.5t75.5 -61t92 -21.5q48 0 91.5 21.5t75.5 61t51 95.5t19 125z" />
<glyph unicode="&#xd6;" horiz-adv-x="756" d="M422 822v82h82v-82h-82zM252 822v82h81v-82h-81zM707 370q0 -83 -24.5 -153t-68 -120.5t-104 -79t-132.5 -28.5t-133 28.5t-104.5 79t-68 120.5t-24.5 153q0 84 24.5 154t68 120.5t104.5 79t133 28.5t132.5 -28.5t104 -79t68 -120.5t24.5 -154zM615 370q0 70 -19 126 t-51 95.5t-75.5 61t-91.5 21.5q-49 0 -92 -21.5t-75.5 -61t-51 -95.5t-18.5 -126q0 -69 18.5 -125t51 -95.5t75.5 -61t92 -21.5q48 0 91.5 21.5t75.5 61t51 95.5t19 125z" />
<glyph unicode="&#xd7;" horiz-adv-x="556" d="M438 156l-160 160l-160 -160l-48 47l160 160l-160 160l48 47l160 -160l160 160l47 -47l-160 -160l160 -160z" />
<glyph unicode="&#xd8;" horiz-adv-x="756" d="M707 370q0 -83 -24.5 -153t-68 -120.5t-104 -79t-132.5 -28.5q-52 0 -98 15t-84 42l-55 -83h-67l79 119q-50 51 -77.5 125t-27.5 163q0 84 24.5 154t68 120.5t104.5 79t133 28.5q52 0 98 -15t84 -42l55 83h66l-79 -119q50 -52 77.5 -125.5t27.5 -163.5zM615 370 q0 66 -17 119.5t-46 93.5l-310 -467q60 -49 136 -49q48 0 91.5 21.5t75.5 61t51 95.5t19 125zM513 624q-29 24 -63.5 37t-71.5 13q-49 0 -92 -21.5t-75.5 -61t-51 -95.5t-18.5 -126q0 -66 16.5 -119.5t46.5 -92.5z" />
<glyph unicode="&#xd9;" horiz-adv-x="711" d="M347 774l-121 170h100l85 -170h-64zM615 226q0 -63 -21 -108.5t-56 -75t-82.5 -43.5t-99.5 -14q-53 0 -100 14t-82.5 43.5t-56.5 75t-21 108.5v515h89v-515q0 -40 13 -70.5t36 -51t54.5 -31t67.5 -10.5t67 10.5t54 31t36 51t13 70.5v515h89v-515z" />
<glyph unicode="&#xda;" horiz-adv-x="711" d="M367 774h-63l85 170h100zM615 226q0 -63 -21 -108.5t-56 -75t-82.5 -43.5t-99.5 -14q-53 0 -100 14t-82.5 43.5t-56.5 75t-21 108.5v515h89v-515q0 -40 13 -70.5t36 -51t54.5 -31t67.5 -10.5t67 10.5t54 31t36 51t13 70.5v515h89v-515z" />
<glyph unicode="&#xdb;" horiz-adv-x="711" d="M418 774l-62 107l-63 -107h-78l96 170h89l96 -170h-78zM615 226q0 -63 -21 -108.5t-56 -75t-82.5 -43.5t-99.5 -14q-53 0 -100 14t-82.5 43.5t-56.5 75t-21 108.5v515h89v-515q0 -40 13 -70.5t36 -51t54.5 -31t67.5 -10.5t67 10.5t54 31t36 51t13 70.5v515h89v-515z" />
<glyph unicode="&#xdc;" horiz-adv-x="711" d="M400 822v82h81v-82h-81zM230 822v82h81v-82h-81zM615 226q0 -63 -21 -108.5t-56 -75t-82.5 -43.5t-99.5 -14q-53 0 -100 14t-82.5 43.5t-56.5 75t-21 108.5v515h89v-515q0 -40 13 -70.5t36 -51t54.5 -31t67.5 -10.5t67 10.5t54 31t36 51t13 70.5v515h89v-515z" />
<glyph unicode="&#xdd;" horiz-adv-x="557" d="M267 774h-64l85 170h100zM323 342v-342h-89v342l-271 399h107l209 -320l208 320h107z" />
<glyph unicode="&#xde;" horiz-adv-x="593" d="M185 580h141q55 0 99 -16t75 -44t47 -66t16 -83q0 -47 -16 -85.5t-47 -66t-75 -43t-99 -15.5h-141v-161h-89v741h89v-161zM470 370q0 28 -9 52t-27 42t-45 28t-63 10h-141v-263h141q72 0 108 37.5t36 93.5z" />
<glyph unicode="&#xdf;" horiz-adv-x="593" d="M533 211q0 -46 -15.5 -86.5t-46 -70.5t-75.5 -47.5t-103 -17.5q-17 0 -37 2.5t-30 4.5v71q11 -4 23.5 -6t28.5 -2q41 0 71.5 12t51 32t30.5 47t10 57t-10 57t-29.5 47.5t-48.5 32.5t-68 12h-59v70h67q29 0 52 10t39.5 27.5t25.5 40.5t9 49t-9 49t-25 40.5t-38.5 28 t-50.5 10.5t-51 -10.5t-39.5 -28t-26 -40.5t-9.5 -49v-553h-81v550q0 45 14.5 82t41.5 64t65 41.5t86 14.5t86.5 -14.5t65.5 -41t41.5 -63t14.5 -80.5q0 -36 -12 -64t-29 -48.5t-35.5 -33t-31.5 -17.5q60 -17 98.5 -65t38.5 -114z" />
<glyph unicode="&#xe0;" horiz-adv-x="563" d="M284 585l-121 171h100l85 -171h-64zM393 0v89q-16 -44 -60 -72t-107 -28q-35 0 -65.5 12t-53 33t-35.5 49.5t-13 60.5q0 31 12.5 61.5t41 55t74.5 39.5t113 15h93v55q0 20 -9 39t-25 33.5t-38.5 23t-50.5 8.5q-48 0 -79 -14t-54 -37l-52 52q31 31 75.5 52t109.5 21 q47 0 85 -13.5t64.5 -37.5t40.5 -56.5t14 -70.5v-370h-81zM393 244h-104q-39 0 -66.5 -9t-45 -23.5t-25.5 -32.5t-8 -35q0 -36 26 -58.5t74 -22.5q39 0 67 16.5t46.5 40t27 48.5t8.5 43v33z" />
<glyph unicode="&#xe1;" horiz-adv-x="563" d="M271 585h-64l86 171h100zM393 0v89q-16 -44 -60 -72t-107 -28q-35 0 -65.5 12t-53 33t-35.5 49.5t-13 60.5q0 31 12.5 61.5t41 55t74.5 39.5t113 15h93v55q0 20 -9 39t-25 33.5t-38.5 23t-50.5 8.5q-48 0 -79 -14t-54 -37l-52 52q31 31 75.5 52t109.5 21q47 0 85 -13.5 t64.5 -37.5t40.5 -56.5t14 -70.5v-370h-81zM393 244h-104q-39 0 -66.5 -9t-45 -23.5t-25.5 -32.5t-8 -35q0 -36 26 -58.5t74 -22.5q39 0 67 16.5t46.5 40t27 48.5t8.5 43v33z" />
<glyph unicode="&#xe2;" horiz-adv-x="563" d="M336 585l-62 107l-62 -107h-79l97 171h89l96 -171h-79zM393 0v89q-16 -44 -60 -72t-107 -28q-35 0 -65.5 12t-53 33t-35.5 49.5t-13 60.5q0 31 12.5 61.5t41 55t74.5 39.5t113 15h93v55q0 20 -9 39t-25 33.5t-38.5 23t-50.5 8.5q-48 0 -79 -14t-54 -37l-52 52 q31 31 75.5 52t109.5 21q47 0 85 -13.5t64.5 -37.5t40.5 -56.5t14 -70.5v-370h-81zM393 244h-104q-39 0 -66.5 -9t-45 -23.5t-25.5 -32.5t-8 -35q0 -36 26 -58.5t74 -22.5q39 0 67 16.5t46.5 40t27 48.5t8.5 43v33z" />
<glyph unicode="&#xe3;" horiz-adv-x="563" d="M447 732q0 -23 -8.5 -43.5t-23.5 -35.5t-35.5 -23.5t-43.5 -8.5t-43.5 9t-34.5 23l-12 12q-14 15 -36 15t-37 -15.5t-15 -36.5h-59q0 23 8.5 43.5t23.5 35.5t35.5 23.5t43.5 8.5q24 0 42 -7.5t36 -24.5l12 -12q14 -15 36 -15q21 0 36.5 15.5t15.5 36.5h59zM393 0v89 q-16 -44 -60 -72t-107 -28q-35 0 -65.5 12t-53 33t-35.5 49.5t-13 60.5q0 31 12.5 61.5t41 55t74.5 39.5t113 15h93v55q0 20 -9 39t-25 33.5t-38.5 23t-50.5 8.5q-48 0 -79 -14t-54 -37l-52 52q31 31 75.5 52t109.5 21q47 0 85 -13.5t64.5 -37.5t40.5 -56.5t14 -70.5v-370 h-81zM393 244h-104q-39 0 -66.5 -9t-45 -23.5t-25.5 -32.5t-8 -35q0 -36 26 -58.5t74 -22.5q39 0 67 16.5t46.5 40t27 48.5t8.5 43v33z" />
<glyph unicode="&#xe4;" horiz-adv-x="563" d="M319 656v81h81v-81h-81zM148 656v81h82v-81h-82zM393 0v89q-16 -44 -60 -72t-107 -28q-35 0 -65.5 12t-53 33t-35.5 49.5t-13 60.5q0 31 12.5 61.5t41 55t74.5 39.5t113 15h93v55q0 20 -9 39t-25 33.5t-38.5 23t-50.5 8.5q-48 0 -79 -14t-54 -37l-52 52q31 31 75.5 52 t109.5 21q47 0 85 -13.5t64.5 -37.5t40.5 -56.5t14 -70.5v-370h-81zM393 244h-104q-39 0 -66.5 -9t-45 -23.5t-25.5 -32.5t-8 -35q0 -36 26 -58.5t74 -22.5q39 0 67 16.5t46.5 40t27 48.5t8.5 43v33z" />
<glyph unicode="&#xe5;" horiz-adv-x="563" d="M348 674q0 -34 -23.5 -57.5t-57.5 -23.5q-35 0 -58.5 23.5t-23.5 57.5t23.5 58t58.5 24q34 0 57.5 -24t23.5 -58zM393 0v89q-16 -44 -60 -72t-107 -28q-35 0 -65.5 12t-53 33t-35.5 49.5t-13 60.5q0 31 12.5 61.5t41 55t74.5 39.5t113 15h93v55q0 20 -9 39t-25 33.5 t-38.5 23t-50.5 8.5q-48 0 -79 -14t-54 -37l-52 52q31 31 75.5 52t109.5 21q47 0 85 -13.5t64.5 -37.5t40.5 -56.5t14 -70.5v-370h-81zM322 674q0 23 -16 39.5t-39 16.5t-39.5 -16.5t-16.5 -39.5t16.5 -39t39.5 -16t39 16t16 39zM393 244h-104q-39 0 -66.5 -9t-45 -23.5 t-25.5 -32.5t-8 -35q0 -36 26 -58.5t74 -22.5q39 0 67 16.5t46.5 40t27 48.5t8.5 43v33z" />
<glyph unicode="&#xe6;" horiz-adv-x="893" d="M475 241q4 -38 17 -70.5t35 -56.5t52.5 -37.5t68.5 -13.5q75 0 122 47l52 -51q-35 -36 -75.5 -53t-98.5 -17q-69 0 -125 30.5t-91 93.5q-22 -52 -74 -88t-132 -36q-35 0 -65.5 12t-53 33t-35.5 49.5t-13 60.5q0 31 12.5 61.5t41 55t74.5 39.5t113 15h93v55q0 20 -9 39 t-25 33.5t-38.5 23t-50.5 8.5q-48 0 -79 -14t-54 -37l-52 52q31 31 75.5 52t109.5 21q66 0 111.5 -24.5t68.5 -67.5q32 42 76 65t96 23q45 0 86.5 -17t73.5 -53.5t51 -94t19 -138.5h-377zM759 315q-4 33 -15.5 61.5t-29 49t-41 32.5t-51.5 12t-52.5 -12t-43 -32.5t-31 -49 t-16.5 -61.5h280zM393 244h-104q-39 0 -66.5 -9t-45 -23.5t-25.5 -32.5t-8 -35q0 -36 26 -58.5t74 -22.5q39 0 67 16.5t46.5 40t27 48.5t8.5 43v33z" />
<glyph unicode="&#xe7;" horiz-adv-x="489" d="M459 59q-32 -32 -73.5 -50.5t-83.5 -19.5l-14 -28q26 -4 48 -22t22 -50q0 -14 -7.5 -28t-22 -25t-35.5 -18t-49 -7q-31 0 -50.5 9.5t-36.5 21.5l30 30q9 -8 22.5 -14t31.5 -6q26 0 39 11.5t13 25.5q0 17 -17.5 28t-55.5 11l32 65q-45 8 -83 31t-65.5 59t-43.5 82.5 t-16 101.5q0 61 19.5 112t54 87.5t80 57t98.5 20.5q43 0 87 -18t76 -51l-52 -52q-22 23 -50.5 35t-60.5 12q-36 0 -66.5 -15t-52.5 -42t-34.5 -64.5t-12.5 -81.5q0 -45 12.5 -82.5t34.5 -64.5t52.5 -42t66.5 -15q32 0 60.5 12.5t50.5 34.5l52 -51v0z" />
<glyph unicode="&#xe8;" horiz-adv-x="548" d="M281 585l-122 171h100l85 -171h-63zM130 241q4 -38 17.5 -70.5t35 -56.5t52 -37.5t69.5 -13.5q74 0 122 47l52 -51q-36 -36 -76 -53t-98 -17q-56 0 -103.5 20.5t-82 57.5t-54.5 88t-20 112t18.5 112t50 87.5t74 57t91.5 20.5q44 0 85.5 -17t73.5 -53.5t51 -94t19 -138.5 h-377zM415 315q-4 33 -15.5 61.5t-29.5 49t-41 32.5t-51 12t-52.5 -12t-43.5 -32.5t-31.5 -49t-16.5 -61.5h281z" />
<glyph unicode="&#xe9;" horiz-adv-x="548" d="M279 585h-64l85 171h100zM130 241q4 -38 17.5 -70.5t35 -56.5t52 -37.5t69.5 -13.5q74 0 122 47l52 -51q-36 -36 -76 -53t-98 -17q-56 0 -103.5 20.5t-82 57.5t-54.5 88t-20 112t18.5 112t50 87.5t74 57t91.5 20.5q44 0 85.5 -17t73.5 -53.5t51 -94t19 -138.5h-377z M415 315q-4 33 -15.5 61.5t-29.5 49t-41 32.5t-51 12t-52.5 -12t-43.5 -32.5t-31.5 -49t-16.5 -61.5h281z" />
<glyph unicode="&#xea;" horiz-adv-x="548" d="M336 585l-62 107l-62 -107h-79l97 171h89l96 -171h-79zM130 241q4 -38 17.5 -70.5t35 -56.5t52 -37.5t69.5 -13.5q74 0 122 47l52 -51q-36 -36 -76 -53t-98 -17q-56 0 -103.5 20.5t-82 57.5t-54.5 88t-20 112t18.5 112t50 87.5t74 57t91.5 20.5q44 0 85.5 -17t73.5 -53.5 t51 -94t19 -138.5h-377zM415 315q-4 33 -15.5 61.5t-29.5 49t-41 32.5t-51 12t-52.5 -12t-43.5 -32.5t-31.5 -49t-16.5 -61.5h281z" />
<glyph unicode="&#xeb;" horiz-adv-x="548" d="M322 656v81h82v-81h-82zM152 656v81h81v-81h-81zM130 241q4 -38 17.5 -70.5t35 -56.5t52 -37.5t69.5 -13.5q74 0 122 47l52 -51q-36 -36 -76 -53t-98 -17q-56 0 -103.5 20.5t-82 57.5t-54.5 88t-20 112t18.5 112t50 87.5t74 57t91.5 20.5q44 0 85.5 -17t73.5 -53.5 t51 -94t19 -138.5h-377zM415 315q-4 33 -15.5 61.5t-29.5 49t-41 32.5t-51 12t-52.5 -12t-43.5 -32.5t-31.5 -49t-16.5 -61.5h281z" />
<glyph unicode="&#xec;" d="M114 585l-121 171h100l85 -171h-64zM89 0v533h81v-533h-81z" />
<glyph unicode="&#xed;" d="M145 585h-64l86 171h100zM89 0v533h81v-533h-81z" />
<glyph unicode="&#xee;" d="M192 585l-62 107l-63 -107h-78l96 171h89l96 -171h-78zM89 0v533h81v-533h-81z" />
<glyph unicode="&#xef;" d="M174 656v81h82v-81h-82zM4 656v81h81v-81h-81zM89 0v533h81v-533h-81z" />
<glyph unicode="&#xf0;" horiz-adv-x="652" d="M585 370q0 -82 -16 -151.5t-49 -120.5t-84 -80t-121 -29q-58 0 -105.5 19t-81 51.5t-51.5 76.5t-18 94q0 47 18 90.5t51.5 76.5t80.5 53t106 20q36 0 66 -10.5t53.5 -25.5t39 -32.5t22.5 -31.5q0 70 -12 126t-38 96l-61 -61l-46 47l62 63q-22 16 -49 24.5t-59 8.5 q-54 0 -91 -21t-63 -47l-58 57q15 15 37 31t49 29t59 21t67 8q51 0 92.5 -13.5t74.5 -39.5l51 51l47 -46l-51 -51q39 -51 58.5 -123t19.5 -160zM478 230q0 30 -11 59.5t-31.5 52.5t-50.5 37t-69 14q-40 0 -70.5 -14t-51.5 -37t-31.5 -52.5t-10.5 -59.5q0 -31 11 -60 t31.5 -52t51 -37t69.5 -14t69.5 14t51 37t31.5 52t11 60z" />
<glyph unicode="&#xf1;" horiz-adv-x="622" d="M490 732q0 -23 -9 -43.5t-24 -35.5t-35 -23.5t-43 -8.5q-24 0 -44.5 9t-34.5 23l-12 12q-14 15 -36 15t-37 -15.5t-15 -36.5h-59q0 23 8.5 43.5t23.5 35.5t35.5 23.5t43.5 8.5q24 0 42.5 -7.5t35.5 -24.5l12 -12q15 -15 37 -15q21 0 36 15.5t15 36.5h60zM452 0v341 q0 64 -33 96.5t-89 32.5q-70 0 -115 -51.5t-45 -151.5v-267h-81v533h81v-89q16 44 60.5 72t110.5 28q89 0 140.5 -54t51.5 -149v-341h-81z" />
<glyph unicode="&#xf2;" horiz-adv-x="578" d="M289 585l-122 171h100l86 -171h-64zM533 267q0 -64 -19.5 -115.5t-52.5 -87.5t-77.5 -55.5t-94.5 -19.5t-94.5 19.5t-78 55.5t-53 87.5t-19.5 115.5t19.5 115t53 87t78 55.5t94.5 19.5t94.5 -19.5t77.5 -55.5t52.5 -87t19.5 -115zM448 267q0 46 -12 83.5t-33 64t-50.5 41 t-63.5 14.5q-33 0 -62 -14.5t-50.5 -41t-34 -64t-12.5 -83.5t12.5 -83.5t34 -64.5t50.5 -41.5t62 -14.5t62 14.5t50.5 41.5t34 64.5t12.5 83.5z" />
<glyph unicode="&#xf3;" horiz-adv-x="578" d="M289 585h-64l85 171h100zM533 267q0 -64 -19.5 -115.5t-52.5 -87.5t-77.5 -55.5t-94.5 -19.5t-94.5 19.5t-78 55.5t-53 87.5t-19.5 115.5t19.5 115t53 87t78 55.5t94.5 19.5t94.5 -19.5t77.5 -55.5t52.5 -87t19.5 -115zM448 267q0 46 -12 83.5t-33 64t-50.5 41 t-63.5 14.5q-33 0 -62 -14.5t-50.5 -41t-34 -64t-12.5 -83.5t12.5 -83.5t34 -64.5t50.5 -41.5t62 -14.5t62 14.5t50.5 41.5t34 64.5t12.5 83.5z" />
<glyph unicode="&#xf4;" horiz-adv-x="578" d="M351 585l-62 107l-62 -107h-79l96 171h89l97 -171h-79zM533 267q0 -64 -19.5 -115.5t-52.5 -87.5t-77.5 -55.5t-94.5 -19.5t-94.5 19.5t-78 55.5t-53 87.5t-19.5 115.5t19.5 115t53 87t78 55.5t94.5 19.5t94.5 -19.5t77.5 -55.5t52.5 -87t19.5 -115zM448 267 q0 46 -12 83.5t-33 64t-50.5 41t-63.5 14.5q-33 0 -62 -14.5t-50.5 -41t-34 -64t-12.5 -83.5t12.5 -83.5t34 -64.5t50.5 -41.5t62 -14.5t62 14.5t50.5 41.5t34 64.5t12.5 83.5z" />
<glyph unicode="&#xf5;" horiz-adv-x="578" d="M463 732q0 -23 -9 -43.5t-24 -35.5t-35 -23.5t-43 -8.5t-43.5 9t-35.5 23l-12 12q-14 15 -36 15t-37 -15.5t-15 -36.5h-59q0 23 9 43.5t24 35.5t35 23.5t43 8.5q25 0 43 -7.5t36 -24.5l12 -12q14 -15 36 -15q21 0 36.5 15.5t15.5 36.5h59zM533 267q0 -64 -19.5 -115.5 t-52.5 -87.5t-77.5 -55.5t-94.5 -19.5t-94.5 19.5t-78 55.5t-53 87.5t-19.5 115.5t19.5 115t53 87t78 55.5t94.5 19.5t94.5 -19.5t77.5 -55.5t52.5 -87t19.5 -115zM448 267q0 46 -12 83.5t-33 64t-50.5 41t-63.5 14.5q-33 0 -62 -14.5t-50.5 -41t-34 -64t-12.5 -83.5 t12.5 -83.5t34 -64.5t50.5 -41.5t62 -14.5t62 14.5t50.5 41.5t34 64.5t12.5 83.5z" />
<glyph unicode="&#xf6;" horiz-adv-x="578" d="M333 656v81h82v-81h-82zM163 656v81h81v-81h-81zM533 267q0 -64 -19.5 -115.5t-52.5 -87.5t-77.5 -55.5t-94.5 -19.5t-94.5 19.5t-78 55.5t-53 87.5t-19.5 115.5t19.5 115t53 87t78 55.5t94.5 19.5t94.5 -19.5t77.5 -55.5t52.5 -87t19.5 -115zM448 267q0 46 -12 83.5 t-33 64t-50.5 41t-63.5 14.5q-33 0 -62 -14.5t-50.5 -41t-34 -64t-12.5 -83.5t12.5 -83.5t34 -64.5t50.5 -41.5t62 -14.5t62 14.5t50.5 41.5t34 64.5t12.5 83.5z" />
<glyph unicode="&#xf8;" horiz-adv-x="578" d="M533 267q0 -64 -19.5 -115.5t-52.5 -87.5t-77.5 -55.5t-94.5 -19.5q-69 0 -125 35l-38 -61h-56l57 90q-38 36 -60.5 90.5t-22.5 123.5q0 64 19.5 115t53 87t78 55.5t94.5 19.5q69 0 124 -35l39 61h55l-57 -90q38 -36 60.5 -90t22.5 -123zM448 267q0 44 -10.5 80.5 t-30.5 62.5l-201 -320q38 -27 83 -27q33 0 62 14.5t50.5 41.5t34 64.5t12.5 83.5zM373 444q-37 26 -84 26q-33 0 -62 -14.5t-50.5 -41t-34 -64t-12.5 -83.5q0 -87 42 -143z" />
<glyph unicode="&#xf9;" horiz-adv-x="622" d="M288 585l-121 171h100l85 -171h-64zM452 0v89q-16 -44 -60.5 -72t-110.5 -28q-89 0 -140.5 54.5t-51.5 149.5v340h81v-340q0 -65 33.5 -97.5t89.5 -32.5q69 0 114 51.5t45 152.5v266h81v-533h-81z" />
<glyph unicode="&#xfa;" horiz-adv-x="622" d="M315 585h-64l85 171h100zM452 0v89q-16 -44 -60.5 -72t-110.5 -28q-89 0 -140.5 54.5t-51.5 149.5v340h81v-340q0 -65 33.5 -97.5t89.5 -32.5q69 0 114 51.5t45 152.5v266h81v-533h-81z" />
<glyph unicode="&#xfb;" horiz-adv-x="622" d="M373 585l-62 107l-62 -107h-79l97 171h89l96 -171h-79zM452 0v89q-16 -44 -60.5 -72t-110.5 -28q-89 0 -140.5 54.5t-51.5 149.5v340h81v-340q0 -65 33.5 -97.5t89.5 -32.5q69 0 114 51.5t45 152.5v266h81v-533h-81z" />
<glyph unicode="&#xfc;" horiz-adv-x="622" d="M352 656v81h81v-81h-81zM181 656v81h82v-81h-82zM452 0v89q-16 -44 -60.5 -72t-110.5 -28q-89 0 -140.5 54.5t-51.5 149.5v340h81v-340q0 -65 33.5 -97.5t89.5 -32.5q69 0 114 51.5t45 152.5v266h81v-533h-81z" />
<glyph unicode="&#xfd;" horiz-adv-x="541" d="M252 585h-64l85 171h100zM268 -112q-3 -8 -11 -21.5t-23 -26.5t-39 -23t-59 -10q-17 0 -36.5 2.5t-29.5 5.5v70q11 -3 22 -5t23 -2q22 0 35.5 4t21.5 10.5t12.5 14t7.5 14.5l29 72l-214 540h93l167 -448l174 448h92z" />
<glyph unicode="&#xfe;" horiz-adv-x="619" d="M574 278q0 -68 -19.5 -122t-51.5 -91t-74 -56.5t-88 -19.5q-25 0 -51.5 6.5t-49.5 18.5t-41.5 29t-28.5 38v-266h-81v926h81v-271q10 22 28.5 40t41.5 31t49.5 19.5t51.5 6.5q46 0 88 -19.5t74 -57t51.5 -91t19.5 -121.5zM489 278q0 50 -12 90t-33 67.5t-50.5 42.5 t-63.5 15q-33 0 -62.5 -15t-51 -42.5t-34 -67.5t-12.5 -90t12.5 -90t34 -68t51 -42.5t62.5 -14.5t62 14.5t50.5 42.5t34 68t12.5 90z" />
<glyph unicode="&#xff;" horiz-adv-x="541" d="M315 656v81h81v-81h-81zM144 656v81h82v-81h-82zM268 -112q-3 -8 -11 -21.5t-23 -26.5t-39 -23t-59 -10q-17 0 -36.5 2.5t-29.5 5.5v70q11 -3 22 -5t23 -2q22 0 35.5 4t21.5 10.5t12.5 14t7.5 14.5l29 72l-214 540h93l167 -448l174 448h92z" />
<glyph unicode="&#x131;" d="M89 0v533h81v-533h-81z" />
<glyph unicode="&#x141;" horiz-adv-x="481" d="M96 0v314l-57 -29l-28 55l85 42v359h89v-314l54 27l28 -55l-82 -40v-281h296v-78h-385z" />
<glyph unicode="&#x142;" d="M170 356v-356h-81v316l-60 -31l-28 55l88 44v357h81v-317l60 30l27 -55z" />
<glyph unicode="&#x152;" horiz-adv-x="1059" d="M615 0v107q-42 -57 -102 -87.5t-135 -30.5q-72 0 -133 28.5t-104.5 79t-68 120.5t-24.5 153q0 84 24.5 154t68 120.5t104.5 79t133 28.5q75 0 135 -29.5t102 -89.5v108h378v-78h-289v-248h281v-78h-281v-259h296v-78h-385zM615 370q0 70 -19 126t-51 95.5t-75.5 61 t-91.5 21.5q-49 0 -92 -21.5t-75.5 -61t-51 -95.5t-18.5 -126q0 -69 18.5 -125t51 -95.5t75.5 -61t92 -21.5q48 0 91.5 21.5t75.5 61t51 95.5t19 125z" />
<glyph unicode="&#x153;" horiz-adv-x="952" d="M534 241q4 -38 17 -70.5t35 -56.5t52.5 -37.5t68.5 -13.5q39 0 68.5 11.5t54.5 35.5l51 -51q-35 -36 -75.5 -53t-98.5 -17q-70 0 -126 32t-89 89q-32 -58 -85 -89.5t-118 -31.5q-50 0 -94.5 19.5t-78 55.5t-53 87.5t-19.5 115.5t19.5 115t53 87t78 55.5t94.5 19.5 q63 0 117.5 -31t83.5 -86q28 54 79.5 85.5t111.5 31.5q45 0 86.5 -17t73.5 -53.5t51 -94t19 -138.5h-377zM819 315q-4 33 -15.5 61.5t-29.5 49t-41.5 32.5t-51.5 12t-52.5 -12t-43 -32.5t-31 -49t-16.5 -61.5h281zM448 267q0 46 -12 83.5t-33 64t-50.5 41t-63.5 14.5 q-33 0 -62 -14.5t-50.5 -41t-34 -64t-12.5 -83.5t12.5 -83.5t34 -64.5t50.5 -41.5t62 -14.5t62 14.5t50.5 41.5t34 64.5t12.5 83.5z" />
<glyph unicode="&#x160;" horiz-adv-x="552" d="M321 774h-89l-96 170h78l62 -106l63 106h78zM515 204q0 -49 -17 -89t-49 -69t-77.5 -45t-101.5 -16q-41 0 -76.5 8t-64.5 21.5t-52.5 30t-39.5 33.5l57 57q32 -32 77 -52t99 -20q71 0 111.5 39.5t40.5 101.5q0 48 -33.5 78.5t-84.5 47.5l-104 34q-31 10 -58 26.5t-47 40 t-31.5 54.5t-11.5 71q0 34 14.5 69.5t44 64.5t75 47.5t107.5 18.5q69 0 124.5 -25t97.5 -67l-57 -58q-29 29 -71.5 50.5t-93.5 21.5q-38 0 -66 -11t-46.5 -28t-27.5 -39t-9 -44q0 -45 24.5 -71t63.5 -39l105 -35q34 -11 66 -27.5t57 -41.5t40 -58.5t15 -79.5z" />
<glyph unicode="&#x161;" horiz-adv-x="448" d="M269 585h-89l-96 171h78l62 -107l63 107h78zM411 140q0 -30 -12 -58t-36 -49.5t-60 -34.5t-84 -13q-59 0 -107 23t-75 51l52 51q18 -17 52 -34t78 -17q51 0 79 23t28 58q0 28 -19 48t-61 34l-80 27q-64 21 -93 57.5t-29 89.5q0 29 11.5 56.5t35 48.5t58 34t81.5 13 q58 0 100.5 -21t73.5 -52l-52 -52q-20 20 -48.5 35.5t-73.5 15.5q-25 0 -44 -7t-31.5 -18t-18.5 -25t-6 -28q0 -27 18 -44t56 -30l80 -26q68 -23 97.5 -63t29.5 -93z" />
<glyph unicode="&#x178;" horiz-adv-x="557" d="M323 804v81h81v-81h-81zM153 804v81h81v-81h-81zM323 342v-342h-89v342l-271 399h107l209 -320l208 320h107z" />
<glyph unicode="&#x17d;" horiz-adv-x="519" d="M304 774h-89l-96 170h78l62 -106l62 106h79zM37 0v78l341 585h-334v78h430v-78l-341 -585h348v-78h-444z" />
<glyph unicode="&#x17e;" horiz-adv-x="452" d="M270 585h-89l-96 171h79l62 -107l62 107h79zM44 0v70l260 393h-252v70h348v-70l-259 -389h266v-74h-363z" />
<glyph unicode="&#x192;" horiz-adv-x="519" d="M505 670q-21 8 -44 8q-44 0 -66 -18.5t-29 -52.5l-33 -155h117v-56h-129l-98 -463q-5 -24 -18.5 -46.5t-35 -40t-50.5 -28.5t-63 -11q-17 0 -36.5 2.5t-29.5 5.5l15 70q11 -3 21.5 -5t22.5 -2q44 0 66 18.5t29 51.5l96 448h-98v56h110l36 170q5 24 19 46.5t35.5 40 t50 28.5t63.5 11q17 0 36 -2.5t29 -4.5z" />
<glyph unicode="&#x2c6;" horiz-adv-x="333" d="M229 585l-62 107l-63 -107h-78l96 171h89l96 -171h-78z" />
<glyph unicode="&#x2c7;" horiz-adv-x="333" d="M211 585h-89l-96 171h78l63 -107l62 107h78z" />
<glyph unicode="&#x2d8;" horiz-adv-x="333" d="M293 741q0 -26 -10 -49t-27 -40t-40 -27t-49 -10t-49 10t-40 27t-27 40t-10 49h52q0 -31 21.5 -52.5t52.5 -21.5q30 0 52 21.5t22 52.5h52v0z" />
<glyph unicode="&#x2d9;" horiz-adv-x="326" d="M232 674q0 -29 -20 -48.5t-49 -19.5t-49 19.5t-20 48.5t20 49t49 20t49 -20t20 -49z" />
<glyph unicode="&#x2da;" horiz-adv-x="326" d="M244 674q0 -33 -24 -57t-57 -24t-57.5 24t-24.5 57q0 34 24.5 58t57.5 24t57 -24t24 -58zM219 674q0 23 -16.5 39.5t-39.5 16.5t-39.5 -16.5t-16.5 -39.5t16.5 -39t39.5 -16t39.5 16t16.5 39z" />
<glyph unicode="&#x2db;" horiz-adv-x="333" d="M262 -158q-16 -12 -36 -21.5t-51 -9.5q-56 0 -85 26.5t-29 61.5t22 65t50 47l56 -11q-32 -20 -47.5 -46.5t-15.5 -54.5q0 -22 14.5 -34.5t38.5 -12.5q17 0 31 6t23 14l29 -30v0z" />
<glyph unicode="&#x2dc;" horiz-adv-x="423" d="M386 732q0 -23 -9 -43.5t-24 -35.5t-35 -23.5t-43 -8.5t-43.5 9t-35.5 23l-12 12q-14 15 -36 15t-37 -15.5t-15 -36.5h-59q0 23 9 43.5t24 35.5t35 23.5t43 8.5q25 0 43 -7.5t36 -24.5l12 -12q14 -15 36 -15q21 0 36.5 15.5t15.5 36.5h59v0z" />
<glyph unicode="&#x2dd;" horiz-adv-x="481" d="M286 585h-64l85 171h100zM138 585h-64l85 171h100z" />
<glyph unicode="&#x3bc;" horiz-adv-x="622" d="M452 0v89q-16 -44 -60.5 -72t-110.5 -28q-38 0 -65.5 10.5t-45.5 30.5v-215h-81v718h81v-340q0 -65 33.5 -97.5t89.5 -32.5q69 0 114 51.5t45 152.5v266h81v-533h-81z" />
<glyph unicode="&#x2013;" horiz-adv-x="622" d="M44 244v67h534v-67h-534z" />
<glyph unicode="&#x2014;" horiz-adv-x="904" d="M44 244v67h815v-67h-815z" />
<glyph unicode="&#x2018;" d="M163 549h-100l64 192h63z" />
<glyph unicode="&#x2019;" d="M133 549h-64l27 192h100z" />
<glyph unicode="&#x201a;" d="M125 -96h-64l28 192h100z" />
<glyph unicode="&#x201c;" horiz-adv-x="422" d="M326 549h-100l64 192h63zM163 549h-100l64 192h63z" />
<glyph unicode="&#x201d;" horiz-adv-x="422" d="M296 549h-64l27 192h100zM133 549h-64l27 192h100z" />
<glyph unicode="&#x201e;" horiz-adv-x="422" d="M288 -96h-64l28 192h100zM125 -96h-64l28 192h100z" />
<glyph unicode="&#x2020;" horiz-adv-x="422" d="M252 463v-648h-82v648h-148v70h148v208h82v-208h148v-70h-148z" />
<glyph unicode="&#x2022;" horiz-adv-x="304" d="M230 296q0 -32 -23 -54.5t-55 -22.5t-55 22.5t-23 54.5t23 55t55 23t55 -23t23 -55z" />
<glyph unicode="&#x2026;" horiz-adv-x="548" d="M370 0v96h97v-96h-97zM226 0v96h96v-96h-96zM81 0v96h97v-96h-97z" />
<glyph unicode="&#x2030;" horiz-adv-x="1148" d="M1111 207q0 -48 -11.5 -87.5t-32 -67.5t-50 -43.5t-65.5 -15.5t-65.5 15.5t-50 43.5t-32 67.5t-11.5 87.5t11.5 88t32 68t50 43.5t65.5 15.5t65.5 -15.5t50 -43.5t32 -68t11.5 -88zM748 207q0 -48 -11.5 -87.5t-32 -67.5t-50 -43.5t-65.5 -15.5t-65.5 15.5t-50 43.5 t-32 67.5t-11.5 87.5t11.5 88t32 68t50 43.5t65.5 15.5t65.5 -15.5t50 -43.5t32 -68t11.5 -88zM193 -37h-63l463 815h63zM356 533q0 -48 -11.5 -87.5t-32.5 -67.5t-50.5 -43.5t-65.5 -15.5t-65.5 15.5t-50 43.5t-32 67.5t-11.5 87.5t11.5 88t32 68t50 43.5t65.5 15.5 t65.5 -15.5t50.5 -43.5t32.5 -68t11.5 -88zM1043 207q0 68 -23.5 112t-67.5 44t-67.5 -44t-23.5 -112q0 -34 6 -62.5t17.5 -49t28.5 -32t39 -11.5t39 11.5t28.5 32t17.5 49t6 62.5zM680 207q0 68 -23.5 112t-67.5 44t-67.5 -44t-23.5 -112q0 -34 6 -62.5t17.5 -49t28.5 -32 t39 -11.5t39 11.5t28.5 32t17.5 49t6 62.5zM287 533q0 69 -23 112.5t-68 43.5q-44 0 -67.5 -44t-23.5 -112q0 -34 6 -62.5t17.5 -49t28.5 -32t39 -11.5q45 0 68 43.5t23 111.5z" />
<glyph unicode="&#x2039;" horiz-adv-x="289" d="M163 89l-104 207l104 208h86l-104 -208l104 -207h-86z" />
<glyph unicode="&#x203a;" horiz-adv-x="289" d="M126 89h-86l104 207l-104 208h86l104 -208z" />
<glyph unicode="&#x20ac;" horiz-adv-x="659" d="M633 78q-42 -42 -98.5 -65.5t-127.5 -23.5q-68 0 -125 21.5t-100.5 61t-72.5 95t-40 122.5h-69v48h64q-1 8 -1 16.5v16.5v17.5t1 16.5h-64v48h69q11 67 40 122.5t72.5 95t100.5 61t125 21.5q71 0 127.5 -23.5t98.5 -65.5l-57 -57q-36 35 -75 51.5t-94 16.5 q-46 0 -86 -15.5t-71.5 -44t-54 -69.5t-32.5 -93h304v-48h-310q-1 -8 -1 -16.5v-17.5v-16.5t1 -16.5h310v-48h-304q10 -52 32.5 -93t54 -69.5t71.5 -44t86 -15.5q55 0 94 16t75 52l57 -57v0z" />
<glyph unicode="&#x2122;" horiz-adv-x="413" d="M337 556v151l-50 -151h-31l-49 151v-151h-28v185h44l49 -152l49 152h44v-185h-28zM103 718v-162h-28v162h-56v23h137v-23h-53z" />
<glyph unicode="&#x2202;" horiz-adv-x="652" d="M585 370q0 -82 -16 -151.5t-49 -120.5t-84 -80t-121 -29q-58 0 -105.5 19t-81 51.5t-51.5 76.5t-18 94q0 47 18 90.5t51.5 76.5t80.5 53t106 20q36 0 66 -10.5t53.5 -25.5t39 -32.5t22.5 -31.5q0 70 -12.5 126t-37.5 95.5t-63 61t-90 21.5q-54 0 -91 -21t-63 -47l-58 57 q15 15 37 31t49 29t59 21t67 8q72 0 127 -28t91.5 -78.5t55 -120.5t18.5 -155zM478 230q0 30 -11 59.5t-31.5 52.5t-50.5 37t-69 14q-40 0 -70.5 -14t-51.5 -37t-31.5 -52.5t-10.5 -59.5q0 -31 11 -60t31.5 -52t51 -37t69.5 -14t69.5 14t51 37t31.5 52t11 60z" />
<glyph unicode="&#x220f;" horiz-adv-x="867" d="M804 370q0 -77 -29 -144t-79.5 -117.5t-118 -79.5t-144.5 -29t-144 29t-117.5 79.5t-79.5 117.5t-29 144t29 144.5t79.5 118t117.5 79.5t144 29t144.5 -29t118 -79.5t79.5 -118t29 -144.5zM763 370q0 69 -26 129t-70.5 104.5t-104.5 70.5t-129 26q-68 0 -128 -26 t-104.5 -70.5t-70.5 -104.5t-26 -129q0 -68 26 -128t70.5 -104.5t104.5 -70.5t128 -26q69 0 129 26t104.5 70.5t70.5 104.5t26 128zM602 477q0 -62 -41 -100t-115 -38h-93v-213h-58v489h151q37 0 66 -10.5t49 -29t30.5 -44t10.5 -54.5zM541 476q0 37 -23.5 62.5t-71.5 25.5 h-93v-174h93q48 0 71.5 24.5t23.5 61.5z" />
<glyph unicode="&#x2212;" horiz-adv-x="556" d="M44 330v66h467v-66h-467z" />
<glyph unicode="&#x2260;" horiz-adv-x="556" d="M273 237l-37 -144h-55l36 144h-173v67h189l30 118h-219v67h235l40 159h56l-40 -159h176v-67h-192l-30 -118h222v-67h-238z" />
<glyph unicode="&#x25fc;" horiz-adv-x="535" d="M0 535h535v-535h-535v535z" />
<glyph horiz-adv-x="1193" d="M96 -222v1000h1000v-1000h-1000zM704 360q7 31 -7 49t-38 18t-45 -18t-28 -49t7 -49t37 -18q25 0 46.5 18t27.5 49zM111 764v-231q13 42 36 79t53.5 67t68.5 51.5t81 33.5h-239zM1082 764h-552q55 -15 101 -46.5t80 -75t53 -97t19 -112.5v-14q-11 -8 -15 -16l5 21h-20 l-28 -128h20l14 64q2 14 8 24.5t14 16.5q-6 -65 -34.5 -122t-74.5 -99t-105.5 -66t-126.5 -24q-58 0 -110.5 18t-96 50.5t-75 77t-47.5 97.5v-541h971v972zM559 433h-107v123l98 145h-39l-75 -116l-76 116h-39l99 -145v-52q-15 32 -42 49.5t-62 17.5q-26 0 -48 -10.5 t-37.5 -28.5t-24.5 -43.5t-9 -55.5q0 -61 33.5 -100t85.5 -39q35 0 62 18t42 49v-197h32v122h105v28h-105v90h107v29zM987 493q-10 12 -15.5 16t-15.5 4q-15 0 -36.5 -8.5t-37.5 -19.5l19 46q4 4 12 7.5t17 6t17.5 4t13.5 1.5q8 0 17 -10t18 -27zM1061 398q-4 5 -10 8.5 t-17 3.5q-12 0 -19 -5.5t-9 -12.5q-3 -13 14 -19l18 -6q15 -5 20 -14.5t3 -22.5q-3 -15 -17 -26.5t-38 -11.5q-14 0 -24.5 5.5t-15.5 12.5l15 12q4 -4 11 -8t18 -4q12 0 20 5.5t10 14.5q3 13 -15 20l-18 6q-15 5 -19.5 14t-2.5 22q3 14 16.5 25t36.5 11q25 0 38 -18z M956 407h-30l-17 -79q-2 -8 1 -12.5t14 -4.5q4 0 12 2l-3 -17q-8 -2 -17 -2q-17 0 -23.5 9.5t-4.5 20.5l18 83h-25l3 17h26l8 37h19l-8 -37h30zM833 296h-20l17 83q6 31 -23 31q-13 0 -26 -9q1 4 1 8.5t1 9.5q13 8 31 8q22 0 31.5 -12.5t4.5 -35.5zM684 360q-5 -23 -19 -36 t-30 -13q-17 0 -25 13t-3 36t18.5 36.5t30.5 13.5t25 -13.5t3 -36.5zM965 87q-13 8 -24 18.5t-22 20t-23 16t-26 6.5q-13 0 -31 -6t-38 -16t-40.5 -22.5t-37.5 -25.5q-3 -3 -5.5 3t-3.5 14t-0.5 15.5t2.5 8.5q16 12 31 21.5t30.5 19t33 18.5t40.5 20q10 5 15 5t15 -4 q26 -12 46.5 -30.5t37.5 -38.5q5 -6 6.5 -20t-6.5 -23zM402 433q0 -51 -25.5 -81t-60.5 -30t-60.5 30t-25.5 81t25.5 80t60.5 29t60.5 -29t25.5 -80zM961 -82q0 -15 -10 -28.5t-26 -24t-36 -16.5t-39 -6q-41 0 -71 3t-54 9t-45.5 14t-46.5 18t-52 33t-50 50.5t-39.5 54 t-19.5 42.5l7 12q14 -18 35.5 -42t47 -45t52 -36.5t49.5 -16.5q6 0 14.5 8.5t12.5 17.5q2 3 7 2t5 -6q1 -22 17 -35.5t37 -13.5q39 0 70 17.5t43 50.5q8 -7 14.5 -16t12.5 -16.5t12 -12.5t13 -5q15 0 21.5 14t6.5 37q5 -16 8.5 -29.5t3.5 -33.5z" />
</font>
</defs>
</svg>
